<svg xmlns="http://www.w3.org/2000/svg" version="1.1" xmlns:xlink="http://www.w3.org/1999/xlink" xmlns:svgjs="http://svgjs.dev/svgjs" viewBox="0 0 6.4666929761168594 7.867579866319047"><g transform="matrix(1,0,0,1,3.0279753943084295,7.1463809287841755)"><g><path d=" M 0.005859375000000001 0.10085449218750002 Q 0.005859375000000001 0.09682617187500002 0.006335449218750001 0.09342041015625002 Q 0.006811523437500001 0.09001464843750001 0.007763671875000001 0.08605957031250001 L 0.022485351562500002 0.08605957031250001 L 0.022485351562500002 0.09213867187500002 Q 0.022485351562500002 0.09719238281250002 0.023107910156250005 0.10107421875000001 Q 0.023730468750000004 0.10495605468750002 0.025158691406250003 0.10762939453125002 Q 0.026586914062500005 0.11030273437500002 0.028967285156250005 0.11165771484375002 Q 0.03134765625 0.11301269531250002 0.03479003906250001 0.11301269531250002 Q 0.040209960937500004 0.11301269531250002 0.04306640625000001 0.11004638671875003 Q 0.045922851562500006 0.10708007812500002 0.045922851562500006 0.10136718750000001 Q 0.045922851562500006 0.09843750000000001 0.045520019531250004 0.09598388671875002 Q 0.04511718750000001 0.09353027343750002 0.04412841796875001 0.09111328125000001 Q 0.043139648437500004 0.08869628906250002 0.041455078125 0.08602294921875002 Q 0.03977050781250001 0.08334960937500002 0.037133789062500006 0.08005371093750002 L 0.017358398437500002 0.056542968750000006 Q 0.012084960937500002 0.049804687500000014 0.009228515625000001 0.04295654296875001 Q 0.006372070312500001 0.03610839843750001 0.006372070312500001 0.028344726562500006 Q 0.006372070312500001 0.022119140625000006 0.008312988281250001 0.016918945312500003 Q 0.010253906250000002 0.01171875 0.013916015625000002 0.007946777343750003 Q 0.017578125000000003 0.0041748046875000056 0.022961425781250003 0.0020874023437500028 Q 0.028344726562500006 0 0.03515625000000001 0 Q 0.04343261718750001 0 0.04896240234375001 0.0023437500000000056 Q 0.05449218750000001 0.004687500000000011 0.05778808593750001 0.008496093750000003 Q 0.06108398437500001 0.012304687500000008 0.06243896484375001 0.01702880859375 Q 0.0637939453125 0.021752929687500006 0.0637939453125 0.026513671875000006 Q 0.0637939453125 0.030541992187500006 0.06317138671875001 0.03394775390625 Q 0.06254882812500001 0.037353515625000014 0.06174316406250001 0.041455078125 L 0.04709472656250001 0.041455078125 L 0.04709472656250001 0.035522460937500014 Q 0.04709472656250001 0.02556152343750001 0.044238281250000004 0.02025146484375001 Q 0.04138183593750001 0.014941406250000011 0.034936523437500006 0.014941406250000011 Q 0.029589843750000004 0.014941406250000011 0.026953125000000005 0.017907714843750006 Q 0.024316406250000002 0.0208740234375 0.024316406250000002 0.02585449218750001 Q 0.024316406250000002 0.02849121093750001 0.024719238281250003 0.03061523437500001 Q 0.025122070312500005 0.032739257812500006 0.025891113281250003 0.03453369140625001 Q 0.026660156250000004 0.036328125 0.027758789062500004 0.03801269531250001 Q 0.028857421875000004 0.039697265625000006 0.030249023437500005 0.041528320312500006 L 0.05229492187500001 0.06818847656250002 Q 0.05830078125000001 0.07602539062500002 0.06152343750000001 0.08323974609375001 Q 0.06474609375000001 0.09045410156250001 0.06474609375000001 0.09851074218750001 Q 0.06474609375000001 0.10517578125000002 0.06265869140625001 0.11052246093750002 Q 0.060571289062500006 0.11586914062500002 0.05668945312500001 0.11960449218750002 Q 0.05280761718750001 0.12333984375000002 0.04731445312500001 0.12535400390625 Q 0.0418212890625 0.1273681640625 0.034936523437500006 0.1273681640625 Q 0.026440429687500003 0.1273681640625 0.020837402343750002 0.12509765625000002 Q 0.015234375000000001 0.12282714843750002 0.011901855468750002 0.11909179687500002 Q 0.008569335937500002 0.11535644531250003 0.007214355468750001 0.11059570312500001 Q 0.005859375000000001 0.10583496093750003 0.005859375000000001 0.10085449218750002 M 0.08100585937500002 0.0010986328125 L 0.10012207031250002 0.0010986328125 L 0.10012207031250002 0.09279785156250002 Q 0.10012207031250002 0.09865722656250002 0.10070800781250003 0.10253906250000001 Q 0.10129394531250002 0.10642089843750002 0.10257568359375002 0.10872802734375002 Q 0.10385742187500002 0.11103515625000002 0.10587158203125002 0.11202392578125002 Q 0.10788574218750002 0.11301269531250002 0.11066894531250002 0.11301269531250002 Q 0.11345214843750002 0.11301269531250002 0.11553955078125003 0.11202392578125002 Q 0.11762695312500002 0.11103515625000002 0.11898193359375003 0.10872802734375002 Q 0.12033691406250002 0.10642089843750002 0.12103271484375003 0.10253906250000001 Q 0.12172851562500003 0.09865722656250002 0.12172851562500003 0.09279785156250002 L 0.12172851562500003 0.0010986328125 L 0.14062500000000003 0.0010986328125 L 0.14062500000000003 0.08774414062500002 Q 0.14062500000000003 0.09689941406250002 0.13916015625000003 0.10341796875000002 Q 0.13769531250000003 0.10993652343750002 0.13527832031250003 0.11433105468750002 Q 0.132861328125 0.11872558593750002 0.12974853515625 0.12128906250000002 Q 0.1266357421875 0.12385253906250002 0.12330322265625002 0.12520751953125003 Q 0.11997070312500002 0.12656250000000002 0.11667480468750002 0.12692871093750002 Q 0.11337890625000002 0.12729492187500002 0.11066894531250002 0.12729492187500002 Q 0.10795898437500002 0.12729492187500002 0.10469970703125002 0.12692871093750002 Q 0.10144042968750003 0.12656250000000002 0.09814453125000003 0.12520751953125003 Q 0.09484863281250003 0.12385253906250002 0.09177246093750002 0.12128906250000002 Q 0.08869628906250002 0.11872558593750002 0.08627929687500002 0.11433105468750002 Q 0.08386230468750001 0.10993652343750002 0.08243408203125002 0.10345458984375001 Q 0.08100585937500002 0.09697265625000001 0.08100585937500002 0.08774414062500002 L 0.08100585937500002 0.0010986328125 M 0.16230468750000002 0.0010986328125 L 0.18706054687500004 0.0010986328125 L 0.19907226562500002 0.04951171875000002 Q 0.20097656250000004 0.05756835937500002 0.20207519531250004 0.06485595703125002 Q 0.20317382812500004 0.07214355468750001 0.20419921875000002 0.07858886718750002 L 0.20478515625000004 0.07858886718750002 Q 0.20581054687500003 0.07214355468750001 0.20690917968750003 0.06485595703125002 Q 0.20800781250000003 0.05756835937500002 0.20991210937500004 0.04951171875000002 L 0.22229003906250006 0.0010986328125 L 0.24653320312500004 0.0010986328125 L 0.24653320312500004 0.12619628906250002 L 0.22880859375000004 0.12619628906250002 L 0.22880859375000004 0.08481445312500002 Q 0.22880859375000004 0.07529296875000002 0.22899169921875004 0.06650390625000002 Q 0.22917480468750004 0.05771484375000001 0.22946777343750002 0.050354003906250014 Q 0.22976074218750003 0.042993164062500006 0.23012695312500003 0.037353515625000014 Q 0.23049316406250003 0.03171386718750001 0.23078613281250004 0.02841796875000001 L 0.22939453125000003 0.02841796875000001 L 0.21049804687500004 0.11008300781250002 L 0.19848632812500003 0.11008300781250002 L 0.17944335937500003 0.02841796875000001 L 0.17805175781250004 0.02841796875000001 Q 0.17834472656250003 0.03171386718750001 0.17871093750000003 0.037353515625000014 Q 0.17907714843750003 0.042993164062500006 0.17937011718750004 0.050354003906250014 Q 0.17966308593750002 0.05771484375000001 0.17984619140625002 0.06650390625000002 Q 0.18002929687500002 0.07529296875000002 0.18002929687500002 0.08481445312500002 L 0.18002929687500002 0.12619628906250002 L 0.16230468750000002 0.12619628906250002 L 0.16230468750000002 0.0010986328125 M 0.26821289062500003 0.0010986328125 L 0.2873291015625 0.0010986328125 L 0.2873291015625 0.09279785156250002 Q 0.2873291015625 0.09865722656250002 0.28791503906250004 0.10253906250000001 Q 0.28850097656250007 0.10642089843750002 0.28978271484375007 0.10872802734375002 Q 0.29106445312500007 0.11103515625000002 0.29307861328125007 0.11202392578125002 Q 0.29509277343750007 0.11301269531250002 0.29787597656250003 0.11301269531250002 Q 0.30065917968750006 0.11301269531250002 0.30274658203125004 0.11202392578125002 Q 0.30483398437500003 0.11103515625000002 0.30618896484375 0.10872802734375002 Q 0.30754394531250007 0.10642089843750002 0.30823974609375004 0.10253906250000001 Q 0.308935546875 0.09865722656250002 0.308935546875 0.09279785156250002 L 0.308935546875 0.0010986328125 L 0.32783203125000004 0.0010986328125 L 0.32783203125000004 0.08774414062500002 Q 0.32783203125000004 0.09689941406250002 0.32636718750000004 0.10341796875000002 Q 0.32490234375000004 0.10993652343750002 0.3224853515625 0.11433105468750002 Q 0.32006835937500006 0.11872558593750002 0.31695556640625006 0.12128906250000002 Q 0.31384277343750006 0.12385253906250002 0.31051025390625003 0.12520751953125003 Q 0.30717773437500007 0.12656250000000002 0.30388183593750007 0.12692871093750002 Q 0.30058593750000007 0.12729492187500002 0.29787597656250003 0.12729492187500002 Q 0.29516601562500006 0.12729492187500002 0.29190673828125 0.12692871093750002 Q 0.28864746093750004 0.12656250000000002 0.28535156250000004 0.12520751953125003 Q 0.28205566406250004 0.12385253906250002 0.2789794921875 0.12128906250000002 Q 0.27590332031250003 0.11872558593750002 0.273486328125 0.11433105468750002 Q 0.27106933593750004 0.10993652343750002 0.26964111328125 0.10345458984375001 Q 0.26821289062500003 0.09697265625000001 0.26821289062500003 0.08774414062500002 L 0.26821289062500003 0.0010986328125 M 0.34951171875000003 0.0010986328125 L 0.36848144531250004 0.0010986328125 Q 0.37207031250000006 0.0010986328125 0.37635498046875004 0.0014282226562500056 Q 0.38063964843750003 0.0017578124999999972 0.38492431640625 0.0029663085937500083 Q 0.38920898437500007 0.0041748046875000056 0.39320068359375004 0.006665039062500003 Q 0.3971923828125 0.0091552734375 0.40026855468750006 0.013439941406250003 Q 0.40334472656250003 0.017724609375000006 0.40521240234375006 0.024169921875000014 Q 0.407080078125 0.03061523437500001 0.407080078125 0.03984375000000001 L 0.407080078125 0.04423828125000001 Q 0.407080078125 0.05427246093750002 0.4053588867187501 0.06141357421875002 Q 0.40363769531250004 0.06855468750000002 0.40078125000000003 0.07342529296875001 Q 0.3979248046875 0.07829589843750001 0.39415283203125007 0.08122558593750001 Q 0.39038085937500006 0.08415527343750001 0.38631591796875003 0.08565673828125002 Q 0.38225097656250007 0.08715820312500001 0.37811279296875006 0.08763427734375001 Q 0.37397460937500004 0.08811035156250002 0.37031250000000004 0.08811035156250002 L 0.36848144531250004 0.08811035156250002 L 0.36848144531250004 0.12619628906250002 L 0.34951171875000003 0.12619628906250002 L 0.34951171875000003 0.0010986328125 M 0.36943359375000007 0.07419433593750002 Q 0.37456054687500007 0.07419433593750002 0.37807617187500003 0.07269287109375001 Q 0.38159179687500006 0.07119140625 0.38367919921875004 0.06800537109375002 Q 0.38576660156250003 0.06481933593750001 0.38668212890625003 0.05980224609375001 Q 0.38759765625000003 0.05478515625000001 0.38759765625000003 0.047753906250000006 L 0.38759765625000003 0.03647460937500001 Q 0.38759765625000003 0.030908203125000006 0.38679199218750004 0.02684326171875001 Q 0.38598632812500006 0.022778320312500003 0.38389892578125007 0.0201416015625 Q 0.3818115234375 0.01750488281250001 0.37829589843750006 0.01622314453125001 Q 0.37478027343750003 0.014941406250000011 0.36943359375000007 0.014941406250000011 L 0.36848144531250004 0.014941406250000011 L 0.36848144531250004 0.07419433593750002 L 0.36943359375000007 0.07419433593750002" fill="#ffffff" fill-rule="nonzero"></path></g><g></g><g clip-path="url(#SvgjsClipPath1005)"><g clip-path="url(#SvgjsClipPath10004b3cfebc-5291-4f8c-8efd-9eabb37e0244)"><path d=" M 0.5415841974480431 -6.485091667410913 L 0.535647850512762 -6.485091667410913 L 0.535647850512762 -1.4216190178626738 L 1.4946762622191998 -1.4216190178626738 L 1.4946762622191998 -2.22630240925187 C 2.4414596354869893 -2.672578929430547 2.9519920678775877 -3.715902332331596 2.7234031877858227 -4.737327127535581 C 2.4948143076940488 -5.758751922739565 1.5882749188388026 -6.484942960977879 0.5415841974480431 -6.485091667410913 Z" fill="#fb700d" transform="matrix(1,0,0,1,0,0)" fill-rule="nonzero"></path></g><g clip-path="url(#SvgjsClipPath10004b3cfebc-5291-4f8c-8efd-9eabb37e0244)"><path d=" M 2.3997378836049217 -4.180555529886993 C 2.362481589490618 -4.180555529886993 2.332279395704031 -4.210757723673576 2.332279395704031 -4.2480140177878845 C 2.3320679957002266 -5.0945552774139164 1.7313525111468584 -5.821952478691569 0.9001164237138575 -5.982198277036724 C 0.8764427518163012 -5.9867154170655486 0.8569772424511384 -6.003519180289068 0.8490523647153974 -6.026279751636351 C 0.8411274869796599 -6.0490403229836325 0.8459472183451329 -6.074299830161765 0.8616960126256097 -6.092543261140952 C 0.877444806906087 -6.110786692120141 0.9017300475649099 -6.11924243569836 0.9254037193464484 -6.114725295058414 C 1.8202670656603823 -5.942333931987109 2.4670292804053515 -5.159331256706109 2.4673120146279244 -4.248014017787886 C 2.4673120409453855 -4.2301028599279205 2.460188955522648 -4.212926980957723 2.4475130124873914 -4.20027273092394 C 2.434837069452138 -4.187618480890157 2.4176490151389274 -4.180524825043941 2.3997378836011594 -4.180555529886998 Z" fill="#ffc632" transform="matrix(1,0,0,1,0,0)" fill-rule="nonzero"></path></g><g clip-path="url(#SvgjsClipPath10004b3cfebc-5291-4f8c-8efd-9eabb37e0244)"><path d=" M 0.35088868907906656 -0.3174584879008897 C 0.586816832721778 -0.3174584879008897 0.7780743821748728 -0.5087160373539881 0.7780743821748728 -0.744644180996703 L -0.07629700401674677 -0.744644180996703 C -0.07627571838234992 -0.5087248547147167 0.1149693627974333 -0.31747977353508716 0.3508886890792393 -0.3174584879008897 Z" fill="#fb700d" transform="matrix(1,0,0,1,0,0)" fill-rule="nonzero"></path></g><g clip-path="url(#SvgjsClipPath10004b3cfebc-5291-4f8c-8efd-9eabb37e0244)"><path d=" M 0.5415841974480431 -6.5525501553118035 L 0.4683435534413616 -6.5525501553118035 L 0.4683435534413616 -1.4889233149340777 L -0.5171285855222254 -1.4889233149340777 C -0.5543848796365334 -1.4889233149340777 -0.5845870734231162 -1.4587211211474944 -0.5845870734231162 -1.421464827033187 C -0.5845870734231162 -1.384208532918879 -0.5543848796365334 -1.3540063391322956 -0.5171285855222254 -1.3540063391322956 L 1.5621347501200908 -1.3540063391322956 L 1.5621347501200908 -2.183977026557482 C 2.521591276226933 -2.6582257024974525 3.0280181085820637 -3.730835358838724 2.7845467505354717 -4.773039911664494 C 2.54107539248888 -5.815244464490263 1.6118498773063825 -6.55246868637911 0.5415841974480431 -6.5525501553118 Z M 0.6032605292431432 -3.5693816295049206 L 0.9000778760070633 -3.5693816295049206 C 0.842753642732653 -3.2820857556167433 0.8154948285304506 -2.989602554887929 0.8187422134522695 -2.6966615346042517 L 0.8187422134522695 -1.4889233149340741 L 0.6033761723652584 -1.4889233149340741 Z M 1.465996767934477 -2.2873234300216474 L 1.4274490605625392 -2.2690518167273472 L 1.4274490605625392 -1.4889233149340741 L 0.9533893553024493 -1.4889233149340741 L 0.9533893553024493 -2.6966615346042535 C 0.9494379231869154 -2.9900338631480547 0.9781397889491665 -3.282935110374976 1.0389652656681578 -3.5699598451155112 C 1.4275647036846584 -3.579172747177394 1.578286239508932 -3.6964348730028282 1.6360307051520957 -3.7954639332413374 C 1.686103593354571 -3.8821678567938043 1.6849808044797667 -3.9892612324973062 1.63310107939183 -4.074896263980514 C 1.5900995290409128 -4.152235855342848 1.51198255205885 -4.203646788775018 1.4239412191916947 -4.212550127005704 C 1.3018512528900774 -4.2198986579653575 1.1837875978041854 -4.167542492965007 1.1072718031312228 -4.072120829049737 C 1.0383485023501993 -3.9943315555731673 0.9794861531932488 -3.8678179799784678 0.9333059997616671 -3.704298605306708 L 0.603106338413649 -3.704298605306708 L 0.603106338413649 -6.416785129947838 C 1.6063198030907397 -6.388165290735927 2.4588377302222755 -5.674926360753296 2.664085043784924 -4.692516114887932 C 2.86933235734758 -3.7101058690225694 2.373682799575495 -2.7152048170562186 1.4658425771049863 -2.2873234300216474 Z M 1.0755084922567475 -3.706187442967926 C 1.1010464923584826 -3.8062350595142678 1.146212611826479 -3.9002099387786973 1.208382439567821 -3.9826516002394636 C 1.2536826307496418 -4.039339491716336 1.3207032781303334 -4.074402255277144 1.3931030532941446 -4.079290702620911 C 1.3987297238080805 -4.079286702691994 1.4043523975971275 -4.0789907724925705 1.4099484014156767 -4.078404105351357 C 1.454776172960635 -4.074406048657369 1.4945787977504996 -4.048107627108916 1.5158389535663939 -4.008440016471287 C 1.5434125505169942 -3.964388813191918 1.5448887746379083 -3.9088384995219396 1.519693724303584 -3.8633849936306888 C 1.4937125695348996 -3.8192864163971927 1.4001572837432095 -3.7210283103061235 1.0753543014272609 -3.7061874429679276 Z" fill="#402804" transform="matrix(1,0,0,1,0,0)" fill-rule="nonzero"></path></g><g clip-path="url(#SvgjsClipPath10004b3cfebc-5291-4f8c-8efd-9eabb37e0244)"><path d=" M -1.6725190185813115 -4.364081164684787 C -1.8097284210525788 -4.329153686180675 -1.91157968869696 -4.213807845819412 -1.9292543249212968 -4.073330245770453 C -1.946928961145641 -3.9328526457214967 -1.8768249897139853 -3.7958717098255756 -1.752544059085456 -3.728043993047818 C -1.7198330328530949 -3.7102035504947932 -1.6788529704838149 -3.7222585404147543 -1.6610125279307955 -3.754969566647115 C -1.6431720853777683 -3.787680592879476 -1.6552270752977258 -3.828660655248756 -1.6879381015300867 -3.8465010978017813 C -1.763618203188128 -3.8876945779327308 -1.8063524001636035 -3.9710295940468376 -1.795638762605389 -4.056525784386183 C -1.7849251250471783 -4.142021974725531 -1.722949541142415 -4.212235673542361 -1.6394450856561873 -4.233481532108662 C -1.6036956847807406 -4.242927448721375 -1.5822130813873807 -4.279391757419292 -1.5912780645917217 -4.3152396455455495 C -1.6003430477960627 -4.3510875336718104 -1.6365767021779773 -4.372956926610463 -1.672519018581308 -4.364273903221648 Z" fill="#402804" transform="matrix(1,0,0,1,0,0)" fill-rule="nonzero"></path></g><g clip-path="url(#SvgjsClipPath10004b3cfebc-5291-4f8c-8efd-9eabb37e0244)"><path d=" M -0.7277918063098687 -5.023516794696524 C -0.7038151554850776 -5.02597505519943 -0.6829712828930523 -5.041037972639466 -0.67311187374378 -5.0630314917008015 C -0.6632524645945077 -5.085025010762138 -0.6658753977108169 -5.110607792634042 -0.6799926395559777 -5.1301430508140395 C -0.6941098814011384 -5.14967830899404 -0.7175766870643412 -5.160198172985721 -0.7415533378158723 -5.157739911768256 C -0.9561030127037953 -5.135667037788644 -1.1291056426316504 -4.972293093294379 -1.1634151672647057 -4.759357348834903 C -1.197724691897765 -4.5464216043754275 -1.084793029035564 -4.336976157481138 -0.8880346258550085 -4.248630781105835 C -0.8540568856965944 -4.233345056177825 -0.8141209566165939 -4.248497928289234 -0.7988352314354297 -4.282475668333763 C -0.7835495062542654 -4.316453408378292 -0.7987023780681273 -4.356389337571189 -0.8326801179987706 -4.371675063005509 C -0.9737732500711405 -4.4350039153917376 -1.0547642323966453 -4.585180892877584 -1.0301684136434341 -4.73786639035072 C -1.0055725948902157 -4.890551887823856 -0.8815189417915015 -5.007698611797247 -0.7276761631877462 -5.02351679469653 Z" fill="#402804" transform="matrix(1,0,0,1,0,0)" fill-rule="nonzero"></path></g><g clip-path="url(#SvgjsClipPath10004b3cfebc-5291-4f8c-8efd-9eabb37e0244)"><path d=" M -0.5530165010855035 -3.606580167118841 C -0.37313942501052866 -3.6916248113779195 -0.2519624380579448 -3.8658020526771404 -0.23476662902278767 -4.064025810501629 C -0.23157323238441885 -4.101133079439475 -0.2590658579284355 -4.133803223918333 -0.29617312686628594 -4.136996620556703 C -0.3332803958041324 -4.140190017195073 -0.36595054028299323 -4.112697391651057 -0.3691439369213616 -4.0755901227132085 C -0.38532046651386054 -3.885153193857301 -0.527297477876661 -3.7292775073369993 -0.715400475377086 -3.695437201294047 C -0.9035034728775109 -3.661596895251094 -1.0909051341399871 -3.758216348570564 -1.1724396108451656 -3.931074767775812 C -1.1826995788972674 -3.9528892507354856 -1.2038180685055722 -3.967573036406663 -1.2278399489551615 -3.9695948847920453 C -1.2518618294047548 -3.9716167331774317 -1.2751376055694947 -3.960669477407061 -1.2888995177603224 -3.9408768428153764 C -1.3026614299511463 -3.921084208223694 -1.304818716307343 -3.8954531668763277 -1.2945587479301779 -3.8736386840695416 C -1.1634655330476222 -3.5950865569107244 -0.8314182117726634 -3.4754998228687612 -0.5528237625486487 -3.6065030717040996 Z" fill="#402804" transform="matrix(1,0,0,1,0,0)" fill-rule="nonzero"></path></g><g clip-path="url(#SvgjsClipPath10004b3cfebc-5291-4f8c-8efd-9eabb37e0244)"><path d=" M -0.41667326011095707 -2.477826199853764 C -0.4844855626422395 -2.407103885724843 -0.5942774232699637 -2.3977621163175176 -0.6730633869408216 -2.456010944793279 C -0.7518493506116757 -2.51425977326904 -0.7751036802373639 -2.6219665858178143 -0.7273677815287725 -2.7075319880831437 C -0.7092186439673751 -2.7400726998281244 -0.7208853199672218 -2.781164941774327 -0.7534260317122039 -2.7993140793357263 C -0.7859667434571862 -2.8174632168971234 -0.8270589854033907 -2.8057965408972767 -0.8452081229647881 -2.7732558291522946 C -0.9258799574626653 -2.6284185496744485 -0.8864668544676191 -2.446204104140784 -0.7531498980025841 -2.3476527392253415 C -0.6198329415375528 -2.2491013743098938 -0.43407201705310783 -2.2648613166803964 -0.3192632035820693 -2.38446365259893 C -0.3025855902090222 -2.4018642831349313 -0.29645796598643237 -2.4268405297130426 -0.30318854771109205 -2.4499840817420404 C -0.3099191294357557 -2.4731276337710364 -0.32848538160228546 -2.4909224350408667 -0.35189357653621345 -2.4966653559707 C -0.375301771470149 -2.5024082769005345 -0.39999564740749305 -2.4952268311592407 -0.41667326004715655 -2.4778261999203304 Z" fill="#402804" transform="matrix(1,0,0,1,0,0)" fill-rule="nonzero"></path></g><g clip-path="url(#SvgjsClipPath10004b3cfebc-5291-4f8c-8efd-9eabb37e0244)"><path d=" M 0.25983900426654527 -2.4971000535397323 C 0.2610148049035943 -2.502012596813098 0.261622699403389 -2.507043893843335 0.2616507465130269 -2.512095111707417 L 0.2616507465130269 -2.536996930669689 C 0.2616507465130269 -2.5398109133078393 0.26203622358674794 -2.5425092528238764 0.26203622358674794 -2.5453232354620283 C 0.26203622358674794 -2.5465953098053022 0.2617278419277702 -2.5477902887338324 0.2616507465130269 -2.5491780061992237 L 0.2616507465130269 -3.2251891503808903 C 0.2616507465130269 -3.2260371999430735 0.2618820327572573 -3.226846701797883 0.26192058046462874 -3.2276947513600667 C 0.26192058046462874 -3.2299690660950104 0.26192058046462874 -3.23212773770784 0.2616507465130269 -3.2343249570280403 L 0.2616507465130269 -5.539786239528887 C 0.26046905316444 -5.545585910095899 0.26046905316444 -5.551564323523478 0.2616507465130269 -5.55736399409049 C 0.26167713104015133 -6.089157846010622 -0.15644162557645114 -6.526983504589019 -0.6876731985041089 -6.5514317675489195 C -1.2189047714317671 -6.57588003050882 -1.675470036304758 -6.178308954026043 -1.7242885895817655 -5.6487606082700665 C -1.7324607035446773 -5.646987413730246 -1.7407099129222763 -5.645946625631204 -1.748804931470377 -5.643865049433118 C -1.9650727109711938 -5.589158868300689 -2.1439526099775343 -5.437637082140249 -2.2334849148144404 -5.2333126217961725 C -2.3230172196513537 -5.0289881614520935 -2.313165068941911 -4.794766460757721 -2.206790242756369 -4.598682511750404 C -2.384111593908679 -4.413867877758438 -2.46445400792785 -4.156567538864717 -2.423802514861377 -3.9036905596366136 C -2.383151021794904 -3.6508135804085082 -2.2262153165894123 -3.4316571241565725 -1.9999046972911798 -3.3117287534308915 C -2.0320310801191623 -3.238328713473296 -2.04845686394151 -3.1590227707978342 -2.0481278792134736 -3.0789006009043836 C -2.0476149474189955 -2.751406352597351 -1.785133409520263 -2.4845378411592867 -1.4576926453975005 -2.4785971540012 C -1.3922124731351928 -2.0563032589418206 -1.0306424400812975 -1.743493956297515 -0.6033212592058812 -1.7394448651443009 L -0.5938770708997552 -1.7394448651443009 C -0.36016295103285767 -1.7360743974764592 -0.1344173538999347 -1.8243386429015862 0.03502877487341172 -1.9853406904698883 C 0.17198115991013418 -2.121363016665792 0.2523097769235134 -2.3042235652716982 0.25983900426654527 -2.4971000535397323 Z M -0.6019335417404919 -1.8743618409460785 C -1.0036266680277846 -1.8773997890335812 -1.3286111238959268 -2.2021096923227157 -1.331988571657618 -2.603800107545256 C -1.33251170045503 -2.79735309847314 -1.255586627198519 -2.983072600489032 -1.1183571774023302 -3.11956843218179 C -1.0927868847949185 -3.146032544511197 -1.093143972789118 -3.188106916802907 -1.1191597549968937 -3.214133214686597 C -1.1451755372046692 -3.2401595125702833 -1.1872497617535738 -3.240533603715993 -1.2137242054405175 -3.2149740079273283 C -1.3737317212109204 -3.0556656798772246 -1.464516486302617 -2.8397212012639863 -1.4664044272635677 -2.6139381545840763 C -1.7157615059824944 -2.6243599641995563 -1.9126731770194 -2.829326185812192 -1.9130952602895728 -3.0789006009043893 C -1.9133067097566014 -3.1408186494964285 -1.90057048466647 -3.202096961347606 -1.8757039841387941 -3.258802751209222 C -1.8350895356937733 -3.2451434499561267 -1.7934737281448703 -3.234665391257689 -1.7512334370348064 -3.2274634651158363 C -1.7475513721329152 -3.2268524299042376 -1.7438255675709788 -3.2265430205288523 -1.7400931496043177 -3.2265383201389093 C -1.7050178236742797 -3.226635967539743 -1.675862552398121 -3.2535827245426208 -1.673007927241437 -3.28854183121496 C -1.6701533020847534 -3.323500937887301 -1.6945507631225192 -3.354820603451751 -1.7291456007106876 -3.360607246378508 C -2.0256713375694173 -3.410256839621293 -2.254808884862079 -3.6480520927337143 -2.293431976124599 -3.9462145510515154 C -2.3320550673871154 -4.244377009369314 -2.171070315483948 -4.532707562097906 -1.8969823186081032 -4.656272786564074 C -1.863015223031321 -4.671590445772789 -1.8478968677415768 -4.711543633553326 -1.863214526950288 -4.745510729130112 C -1.8785321861589988 -4.7794778247069 -1.918485373939538 -4.79459617999664 -1.9524524695163201 -4.779278520787932 C -2.0054770945656033 -4.755316031443661 -2.0557855263327127 -4.725748681871826 -2.1025186943152754 -4.691081366320935 C -2.176893344245753 -4.848148676673093 -2.177968862540066 -5.03007303866606 -2.105456478265388 -5.188008730200125 C -2.0329440939907064 -5.34594442173419 -1.8942740620876495 -5.463707966509961 -1.7266785474388828 -5.5096804800714025 C -1.7179739566828034 -5.3108447710359155 -1.6492753080611153 -5.119302940283781 -1.5296226673535402 -4.960260006899176 C -1.5151623105663923 -4.940979526607767 -1.491514375492946 -4.930878137440239 -1.4675868115888826 -4.933760935438043 C -1.4436592476848191 -4.936643733435844 -1.423087221687824 -4.952072752935816 -1.4136200177198652 -4.974236030845642 C -1.4041528137519028 -4.996399308755469 -1.4072287255356968 -5.021929715392455 -1.4216890867177225 -5.041210192387715 C -1.6464094909698126 -5.34062314460379 -1.6516998438019235 -5.750990548447881 -1.4347727522783784 -6.056097108541387 C -1.2178456607548258 -6.361203668634895 -0.8285084864648127 -6.490995651001654 -0.47189607040573733 -6.377087965740873 C -0.11528365434666599 -6.263180280480093 0.12672431095849213 -5.931726605436831 0.12661812758913005 -5.557363994090489 C 0.12779982093772047 -5.551564323523476 0.12779982093772047 -5.545585910095897 0.1266181275891336 -5.539786239528885 L 0.1266181275891336 -4.918628482937482 C 0.025910635242868185 -4.993613076557035 -0.10850360630386069 -5.00530856624537 -0.22064855661138338 -4.9488444323594525 C -0.33279350691890563 -4.892380298473535 -0.40344536229162964 -4.777435580708762 -0.40318156253077886 -4.65187834792367 C -0.40318156253077886 -4.614622053809365 -0.372979368744192 -4.5844198600227815 -0.3357230746298878 -4.5844198600227815 C -0.2984667805155836 -4.5844198600227815 -0.2682645867289972 -4.614622053809365 -0.2682645867289972 -4.651878347923673 C -0.2682645867289972 -4.760922198468521 -0.17986708011477948 -4.849319705082738 -0.07082322956993359 -4.849319705082738 C 0.0382206209749123 -4.849319705082738 0.12661812758913005 -4.760922198468521 0.12661812758913005 -4.651878347923673 L 0.12661812758913005 -3.2326674056110454 C 0.117857996947762 -3.1156836486113684 0.02234302988447734 -3.0241049996300013 -0.09490565762855852 -3.0202729548645637 C -0.21215434514159082 -3.0164409100991265 -0.3134452269857082 -3.1015873435980867 -0.3298252754019746 -3.217749442858105 C -0.33201428649536346 -3.233194623768625 -0.3326470723818957 -3.248820560966643 -0.33171411306320353 -3.2643921687781488 C -0.3302887345860879 -3.2884927654401666 -0.3418291459265159 -3.3115230654640273 -0.3619881857579208 -3.324807777592795 C -0.3821472255893217 -3.338092489721563 -0.40786225615005556 -3.339613350121331 -0.4294466741581866 -3.3287974653901213 C -0.4510310921663103 -3.3179815806589135 -0.46520571100343866 -3.296472141012161 -0.4666310888585301 -3.272371544313352 C -0.4680540787601408 -3.2477751905644037 -0.46702102994560724 -3.223098237007313 -0.4635472722752261 -3.198706875416368 C -0.44530028259279963 -3.068734576197692 -0.3584770084725384 -2.9586589918717987 -0.2363303995950088 -2.910638609362101 C -0.11418379071746765 -2.862618226852403 0.02435746598716193 -2.8840946181775307 0.126232650515413 -2.9668424155741624 L 0.126232650515413 -2.537112573791801 C 0.1277944438627201 -2.3662288658861073 0.06052570122073986 -2.2019053037280365 -0.060415348579503814 -2.0811702909965284 C -0.20671968376579963 -1.9437331943215916 -0.4012605218323819 -1.8694370955013202 -0.6019335417404919 -1.8743618409460785 Z" fill="#402804" transform="matrix(1,0,0,1,0,0)" fill-rule="nonzero"></path></g><g clip-path="url(#SvgjsClipPath10004b3cfebc-5291-4f8c-8efd-9eabb37e0244)"><path d=" M -1.1173934847180413 -5.489751315360111 C -1.0801371906037334 -5.489751315360111 -1.0499349968171503 -5.519953509146694 -1.0499349968171503 -5.557209803261002 C -1.0511919343912484 -5.671087584485213 -0.9911592504666664 -5.77685699159991 -0.8927423526030565 -5.834161818303399 C -0.7943254547394427 -5.89146664500689 -0.6727068269697498 -5.89146664500689 -0.5742899291061361 -5.834161818303399 C -0.47587303124252234 -5.776856991599908 -0.4158403473179444 -5.671087584485209 -0.41709728489204956 -5.557209803261002 C -0.41709728489204956 -5.519953509146694 -0.38689509110546316 -5.489751315360111 -0.34963879699115896 -5.489751315360111 C -0.31238250287685077 -5.489751315360111 -0.2821803090902679 -5.519953509146694 -0.2821803090902679 -5.557209803261002 C -0.28068092263367683 -5.719450415812568 -0.3663756172963515 -5.870012643248897 -0.5066355418106268 -5.951568869842007 C -0.6468954663248987 -6.0331250964351195 -0.8201368153842901 -6.0331250964351195 -0.960396739898562 -5.951568869842011 C -1.1006566644128337 -5.870012643248904 -1.1863513590755117 -5.7194504158125765 -1.1848519726189284 -5.557209803261002 C -1.1848519726189322 -5.519953509146694 -1.1546497788323455 -5.489751315360111 -1.1173934847180413 -5.489751315360111 Z" fill="#402804" transform="matrix(1,0,0,1,0,0)" fill-rule="nonzero"></path></g><g clip-path="url(#SvgjsClipPath10004b3cfebc-5291-4f8c-8efd-9eabb37e0244)"><path d=" M 1.2184048434845227 -0.8121026688975936 L -0.5166274653263894 -0.8121026688975936 C -0.5538837594406973 -0.8121026688975936 -0.5840859532272802 -0.7819004751110112 -0.5840859532272802 -0.744644180996703 C -0.5840859532272802 -0.7073878868823948 -0.5538837594406973 -0.6771856930958124 -0.5166274653263894 -0.6771856930958124 L -0.13859009912979836 -0.6771856930958124 C -0.1054040096639759 -0.43220914587337944 0.10375165621012883 -0.24947664563109573 0.35096578449380633 -0.24947664563109573 C 0.5981799127774878 -0.24947664563109573 0.8073355786515926 -0.43220914587337944 0.8405216681174186 -0.6771856930958124 L 1.218520486606638 -0.6771856930958124 C 1.2557767807209461 -0.6771856930958124 1.285978974507529 -0.7073878868823948 1.285978974507529 -0.744644180996703 C 1.285978974507529 -0.7819004751110112 1.2557767807209461 -0.8121026688975936 1.218520486606638 -0.8121026688975936 Z M 0.3510814276159251 -0.3849169758017803 C 0.1784927248435073 -0.3851476953094872 0.030295906152133067 -0.5077074989000172 -0.002323953569995041 -0.6771856930958124 L 0.7044868088018497 -0.6771856930958124 C 0.6718419830041138 -0.5076588386730592 0.5235685104974035 -0.38508911903220877 0.35092723678643845 -0.3849169758017803 Z" fill="#402804" transform="matrix(1,0,0,1,0,0)" fill-rule="nonzero"></path></g><g clip-path="url(#SvgjsClipPath10004b3cfebc-5291-4f8c-8efd-9eabb37e0244)"><path d=" M 1.2184048434845227 -1.1505129919158321 L -0.5166274653263894 -1.1505129919158321 C -0.5538837594406973 -1.1505129919158321 -0.5840859532272802 -1.1203107981292488 -0.5840859532272802 -1.0830545040149415 C -0.5840859532272802 -1.0457982099006369 -0.5538837594406973 -1.01559601611405 -0.5166274653263894 -1.01559601611405 L 1.2184048434845227 -1.01559601611405 C 1.255661137598827 -1.01559601611405 1.2858633313854138 -1.0457982099006369 1.2858633313854138 -1.0830545040149415 C 1.2858633313854138 -1.1203107981292488 1.255661137598827 -1.1505129919158321 1.2184048434845227 -1.1505129919158321 Z" fill="#402804" transform="matrix(1,0,0,1,0,0)" fill-rule="nonzero"></path></g></g></g><defs><clipPath id="SvgjsClipPath1005"><path d=" M -2.434144620836058 -6.5525501553118035 h 5.279031429172116 v 6.3025501553118035 h -5.279031429172116 Z"></path></clipPath><clipPath id="SvgjsClipPath10004b3cfebc-5291-4f8c-8efd-9eabb37e0244"><path d=" M -2.434144620836058 -6.5525501553118035 L 2.8448868083360583 -6.5525501553118035 L 2.8448868083360583 -0.25 L -2.434144620836058 -0.25 Z"></path></clipPath></defs></svg>