<svg xmlns="http://www.w3.org/2000/svg" version="1.1" xmlns:xlink="http://www.w3.org/1999/xlink" xmlns:svgjs="http://svgjs.dev/svgjs" viewBox="0 0 4.698556867418643 5.973825218255849"><g transform="matrix(1,0,0,1,1.8893427679542305,5.2477199902609515)"><g><path d=" M 0.013122272917406301 0.22586712259085595 Q 0.013122272917406301 0.2168455599601391 0.014188457591945564 0.20921823882689672 Q 0.015254642266484826 0.20159091769365428 0.01738701161556335 0.19273338347440505 L 0.05035672232054668 0.19273338347440505 L 0.05035672232054668 0.20634774162621408 Q 0.05035672232054668 0.217665702017477 0.0517509638180211 0.2263592078252587 Q 0.05314520531549552 0.23505271363304037 0.05634375933911331 0.241039750651607 Q 0.059542313362731095 0.2470267876701736 0.0648732367354274 0.25006131328232384 Q 0.0702041601081237 0.253095838894474 0.07791349544709991 0.253095838894474 Q 0.09005159789570075 0.253095838894474 0.09644870594293632 0.24645268823003708 Q 0.10284581399017188 0.23980953756560014 0.10284581399017188 0.22701532147112902 Q 0.10284581399017188 0.22045418501242586 0.1019436577271002 0.21495923322826196 Q 0.10104150146402852 0.20946428144409807 0.09882711790921621 0.20405134386566798 Q 0.0966127343544039 0.1986384062872379 0.09284008089064959 0.19265136926867127 Q 0.08906742742689527 0.18666433225010462 0.08316240461406244 0.17928305373406359 L 0.03887473351781617 0.1266299336529708 Q 0.027064687892150496 0.11153931979795356 0.020667579844914925 0.09620266332573493 Q 0.014270471797679353 0.08086600685351633 0.014270471797679353 0.06347899523795297 Q 0.014270471797679353 0.049536580263208785 0.01861722470157019 0.03789056304901067 Q 0.02296397760546103 0.026244545834812616 0.031165398178839968 0.017797082644232298 Q 0.0393668187522189 0.00934961945365198 0.05142290699508594 0.00467480972682599 Q 0.06347899523795299 0 0.0787336375044378 0 Q 0.09726884800027422 0 0.10965299306607641 0.005248909166962523 Q 0.12203713813187861 0.010497818333925046 0.12941841664791964 0.019027295730239147 Q 0.1367996951639607 0.027556773126553247 0.1398342207761109 0.03813660566621205 Q 0.1428687463882611 0.04871643820587088 0.1428687463882611 0.05937828495126349 Q 0.1428687463882611 0.06839984758198034 0.1414745048907867 0.07602716871522275 Q 0.14008026339331225 0.08365448984846516 0.1382759508671689 0.09284008089064957 L 0.10547026857365314 0.09284008089064957 L 0.10547026857365314 0.0795537795617757 Q 0.10547026857365314 0.05724591560218498 0.09907316052641757 0.04535385577078552 Q 0.09267605247918201 0.03346179593938606 0.07824155227003507 0.03346179593938606 Q 0.06626747823290183 0.03346179593938606 0.06036245542006899 0.040104946603822994 Q 0.05445743260723615 0.04674809726825993 0.05445743260723615 0.05790202924805529 Q 0.05445743260723615 0.06380705206088813 0.055359588870307834 0.0685638759934479 Q 0.05626174513337952 0.0733206999260077 0.057984043453789096 0.07733939600696338 Q 0.059706341774198673 0.08135809208791905 0.062166767946212356 0.08513074555167338 Q 0.06462719411822604 0.08890339901542768 0.06774373393611004 0.09300410930211714 L 0.11711628578785124 0.1527104510763158 Q 0.1305666155281927 0.17026149110334676 0.13778386563276618 0.18641828963290324 Q 0.14500111573733962 0.20257508816245978 0.14500111573733962 0.22061821342389343 Q 0.14500111573733962 0.2355447988674431 0.14032630601051363 0.24751887290457636 Q 0.13565149628368764 0.2594929469417096 0.12695799047590597 0.26785839592655614 Q 0.1182644846681243 0.2762238449114026 0.10596235380805588 0.28073462622676104 Q 0.09366022294798748 0.28524540754211947 0.07824155227003507 0.28524540754211947 Q 0.05921425653979594 0.28524540754211947 0.04666608306252616 0.2801605267866245 Q 0.03411790958525639 0.2750756460311296 0.02665461686348155 0.26671019704628307 Q 0.019191324141706715 0.25834474806143654 0.01615679852955651 0.24768290131604392 Q 0.013122272917406301 0.2370210545706513 0.013122272917406301 0.22586712259085595 M 0.18141542308314215 0.0024604261720136966 L 0.2242268384761802 0.0024604261720136966 L 0.2242268384761802 0.2078239973294223 Q 0.2242268384761802 0.22094627024682859 0.22553906576792082 0.22963977605461028 Q 0.22685129305966145 0.23833328186239194 0.2297217902603441 0.24350017682362068 Q 0.23259228746102673 0.2486670717848494 0.23710306877638515 0.2508814553396617 Q 0.24161385009174355 0.253095838894474 0.24784692972751154 0.253095838894474 Q 0.25408000936327957 0.253095838894474 0.25875481909010556 0.2508814553396617 Q 0.26342962881693155 0.2486670717848494 0.2664641544290817 0.24350017682362068 Q 0.26949868004123195 0.23833328186239194 0.27105694995017393 0.22963977605461028 Q 0.27261521985911596 0.22094627024682859 0.27261521985911596 0.2078239973294223 L 0.27261521985911596 0.0024604261720136966 L 0.3149345500177513 0.0024604261720136966 L 0.3149345500177513 0.19650603693815935 Q 0.3149345500177513 0.2170095883716067 0.31165398178839965 0.23160811699222122 Q 0.3083734135590481 0.24620664561283573 0.30296047598061804 0.25604835030089046 Q 0.29754753840218795 0.2658900549889452 0.29057633091481583 0.2716310493903104 Q 0.2836051234274437 0.2773720437916757 0.2761418307056689 0.2804065694038259 Q 0.2686785379838941 0.2834410950159761 0.261297259467853 0.28426123707331397 Q 0.25391598095181195 0.2850813791306519 0.24784692972751154 0.2850813791306519 Q 0.24177787850321114 0.2850813791306519 0.2344786141929039 0.28426123707331397 Q 0.22717934988259664 0.2834410950159761 0.21979807136655558 0.2804065694038259 Q 0.2124167928505145 0.2773720437916757 0.20552759956887623 0.2716310493903104 Q 0.19863840628723792 0.2658900549889452 0.1932254687088078 0.25604835030089046 Q 0.1878125311303777 0.24620664561283573 0.18461397710675992 0.231690131197955 Q 0.18141542308314215 0.21717361678307429 0.18141542308314215 0.19650603693815935 L 0.18141542308314215 0.0024604261720136966 M 0.36348695981215456 0.0024604261720136966 L 0.4189285628881962 0.0024604261720136966 L 0.4458292223688791 0.11088320615208325 Q 0.45009396106703614 0.1289263314135169 0.45255438723904984 0.145247158354541 Q 0.45501481341106353 0.16156798529556507 0.45731121117160967 0.176002485504712 L 0.4586234384633503 0.176002485504712 Q 0.4609198362238964 0.16156798529556507 0.46338026239591007 0.145247158354541 Q 0.4658406885679237 0.1289263314135169 0.4701054272660808 0.11088320615208325 L 0.4978262288041016 0.0024604261720136966 L 0.5521196329998701 0.0024604261720136966 L 0.5521196329998701 0.2826209529586382 L 0.512424757424716 0.2826209529586382 L 0.512424757424716 0.1899449004794562 Q 0.512424757424716 0.16862120698867095 0.512834828453385 0.1489377976125615 Q 0.513244899482054 0.12925438823645205 0.5139010131279242 0.11276953288396038 Q 0.5145571267737946 0.09628467753146872 0.5153772688311326 0.08365448984846516 Q 0.5161974108884704 0.0710243021654616 0.5168535245343407 0.06364302364942054 L 0.5137369847164568 0.06364302364942054 L 0.4714176545578214 0.24653470243577089 L 0.4445169950771385 0.24653470243577089 L 0.40186960809556804 0.06364302364942054 L 0.39875306827768403 0.06364302364942054 Q 0.39940918192355435 0.0710243021654616 0.4002293239808922 0.08365448984846516 Q 0.4010494660382301 0.09628467753146872 0.4017055796841004 0.11276953288396038 Q 0.40236169332997074 0.12925438823645205 0.4027717643586397 0.1489377976125615 Q 0.4031818353873087 0.16862120698867095 0.4031818353873087 0.1899449004794562 L 0.4031818353873087 0.2826209529586382 L 0.36348695981215456 0.2826209529586382 L 0.36348695981215456 0.0024604261720136966 M 0.6006720427942734 0.0024604261720136966 L 0.6434834581873116 0.0024604261720136966 L 0.6434834581873116 0.2078239973294223 Q 0.6434834581873116 0.22094627024682859 0.6447956854790522 0.22963977605461028 Q 0.6461079127707928 0.23833328186239194 0.6489784099714755 0.24350017682362068 Q 0.651848907172158 0.2486670717848494 0.6563596884875165 0.2508814553396617 Q 0.6608704698028749 0.253095838894474 0.6671035494386429 0.253095838894474 Q 0.6733366290744109 0.253095838894474 0.6780114388012368 0.2508814553396617 Q 0.6826862485280629 0.2486670717848494 0.685720774140213 0.24350017682362068 Q 0.6887552997523633 0.23833328186239194 0.6903135696613053 0.22963977605461028 Q 0.6918718395702472 0.22094627024682859 0.6918718395702472 0.2078239973294223 L 0.6918718395702472 0.0024604261720136966 L 0.7341911697288825 0.0024604261720136966 L 0.7341911697288825 0.19650603693815935 Q 0.7341911697288825 0.2170095883716067 0.730910601499531 0.23160811699222122 Q 0.7276300332701795 0.24620664561283573 0.7222170956917493 0.25604835030089046 Q 0.7168041581133193 0.2658900549889452 0.7098329506259471 0.2716310493903104 Q 0.7028617431385751 0.2773720437916757 0.6953984504168003 0.2804065694038259 Q 0.6879351576950254 0.2834410950159761 0.6805538791789844 0.28426123707331397 Q 0.6731726006629433 0.2850813791306519 0.6671035494386429 0.2850813791306519 Q 0.6610344982143425 0.2850813791306519 0.6537352339040352 0.28426123707331397 Q 0.646435969593728 0.2834410950159761 0.6390546910776869 0.2804065694038259 Q 0.6316734125616459 0.2773720437916757 0.6247842192800076 0.2716310493903104 Q 0.6178950259983692 0.2658900549889452 0.6124820884199391 0.25604835030089046 Q 0.607069150841509 0.24620664561283573 0.6038705968178912 0.231690131197955 Q 0.6006720427942734 0.21717361678307429 0.6006720427942734 0.19650603693815935 L 0.6006720427942734 0.0024604261720136966 M 0.7827435795232859 0.0024604261720136966 L 0.8252269380933888 0.0024604261720136966 Q 0.8332643302553001 0.0024604261720136966 0.8428599923261535 0.0031985540236177945 Q 0.8524556543970069 0.003936681875221892 0.8620513164678603 0.0066431506644369365 Q 0.8716469785387135 0.00934961945365198 0.8805865269636967 0.014926585443549634 Q 0.8895260753886797 0.020503551433447342 0.896415268670318 0.03009921350430067 Q 0.9033044619519564 0.039694875575154054 0.9074871864443795 0.05412937578430099 Q 0.9116699109368028 0.0685638759934479 0.9116699109368028 0.08923145583836284 L 0.9116699109368028 0.09907316052641757 Q 0.9116699109368028 0.12154505289747586 0.9078152432673148 0.13753782301556478 Q 0.9039605755978266 0.15353059313365372 0.897563467550591 0.1644384824962477 Q 0.8911663595033554 0.1753463718588417 0.8827188963127751 0.18190750831754485 Q 0.8742714331221948 0.18846864477624797 0.8651678562857442 0.19183122721133336 Q 0.8560642794492936 0.19519380964641872 0.8467966742013754 0.19625999432095798 Q 0.8375290689534572 0.19732617899549726 0.8293276483800782 0.19732617899549726 L 0.8252269380933888 0.19732617899549726 L 0.8252269380933888 0.2826209529586382 L 0.7827435795232859 0.2826209529586382 L 0.7827435795232859 0.0024604261720136966 M 0.8273593074424673 0.16616078081665728 Q 0.8388412962451979 0.16616078081665728 0.8467146599956417 0.16279819838157192 Q 0.8545880237460854 0.15943561594648653 0.8592628334729114 0.15230038004764687 Q 0.8639376431997374 0.14516514414880718 0.8659879983430822 0.13392919796327804 Q 0.8680383534864269 0.1226932517777489 0.8680383534864269 0.10694652427686135 L 0.8680383534864269 0.08168614891085421 Q 0.8680383534864269 0.06921998963931822 0.8662340409602834 0.060116412802867614 Q 0.8644297284341401 0.05101283596641698 0.8597549187073141 0.04510781315358414 Q 0.8550801089804881 0.0392027903407513 0.8472067452300444 0.036332293140068694 Q 0.8393333814796006 0.03346179593938606 0.8273593074424673 0.03346179593938606 L 0.8252269380933888 0.03346179593938606 L 0.8252269380933888 0.16616078081665728 L 0.8273593074424673 0.16616078081665728" fill="#ffffff" fill-rule="nonzero"></path></g><g></g><g clip-path="url(#SvgjsClipPath1001)"><g clip-path="url(#SvgjsClipPath100054cb3aa3-eca7-460d-a21d-5b5c4e3fa0db)"><path d=" M 0.7030239495536672 -4.758086437103805 L 0.6987318610756805 -4.758086437103805 L 0.6987318610756805 -1.0971021896094793 L 1.3921271159053918 -1.0971021896094793 L 1.3921271159053918 -1.678903144011592 C 2.076668981779233 -2.0015693107867767 2.4457933598843864 -2.7559114011708727 2.2805193775625923 -3.4944203937247353 C 2.115245395240793 -4.232929386278598 1.4598006733998847 -4.757978919606128 0.7030239495536672 -4.758086437103805 Z" fill="#fb700d" transform="matrix(1,0,0,1,0,0)" fill-rule="nonzero"></path></g><g clip-path="url(#SvgjsClipPath100054cb3aa3-eca7-460d-a21d-5b5c4e3fa0db)"><path d=" M 2.0465033845716047 -3.091864245104956 C 2.0195663958066605 -3.091864245104956 1.9977296518672358 -3.113700989044378 1.9977296518672358 -3.140637977809325 C 1.9975768057599472 -3.7527029440576203 1.56324841526849 -4.278624555540312 0.9622493712008691 -4.394485227468915 C 0.9451328691684084 -4.397751203140913 0.9310589463712402 -4.409900634315469 0.9253291133965416 -4.4263569477852 C 0.9195992804218456 -4.44281326125493 0.9230840352190741 -4.461076351485477 0.934470704362631 -4.47426668903791 C 0.9458573735061884 -4.487457026590345 0.9634160510486631 -4.493570685374198 0.9805325529972411 -4.490304709260348 C 1.6275352804253553 -4.365662569707283 2.0951563073241832 -3.7995371734922148 2.095360729389178 -3.1406379778093263 C 2.095360748417189 -3.1276878798591445 2.0902106260938216 -3.1152694021267973 2.081045685155837 -3.1061201456295464 C 2.071880744217855 -3.096970889132294 2.0594534634876323 -3.091842044936314 2.0465033845688847 -3.0918642451049605 Z" fill="#ffc632" transform="matrix(1,0,0,1,0,0)" fill-rule="nonzero"></path></g><g clip-path="url(#SvgjsClipPath100054cb3aa3-eca7-460d-a21d-5b5c4e3fa0db)"><path d=" M 0.5651475748745165 -0.298773732704368 C 0.7357279802991625 -0.298773732704368 0.8740107210629775 -0.43705647346818655 0.8740107210629775 -0.6076368788928352 L 0.25628442868604995 -0.6076368788928352 C 0.25629981859286244 -0.4370628485828494 0.39457354456478555 -0.2987891226110371 0.5651475748746413 -0.298773732704368 Z" fill="#fb700d" transform="matrix(1,0,0,1,0,0)" fill-rule="nonzero"></path></g><g clip-path="url(#SvgjsClipPath100054cb3aa3-eca7-460d-a21d-5b5c4e3fa0db)"><path d=" M 0.7030239495536672 -4.806860169808174 L 0.6500696111889237 -4.806860169808174 L 0.6500696111889237 -1.1457644394962387 L -0.06244494686089941 -1.1457644394962387 C -0.08938193562584629 -1.1457644394962387 -0.11121867956526832 -1.1239276955568167 -0.11121867956526832 -1.0969907067918698 C -0.11121867956526832 -1.070053718026923 -0.08938193562584629 -1.048216974087501 -0.06244494686089941 -1.048216974087501 L 1.4409008486097603 -1.048216974087501 L 1.4409008486097603 -1.6483011105776506 C 2.134605638058197 -1.991191662611377 2.5007615915076538 -2.7667082551471434 2.3247273027465307 -3.520241396261755 C 2.1486930139854077 -4.273774537376367 1.476845803799245 -4.806801266265113 0.7030239495536672 -4.806860169808171 Z M 0.7476170765976615 -2.6499742268033737 L 0.9622215004968844 -2.6499742268033737 C 0.9207750210662056 -2.442254003654035 0.9010663949302393 -2.230783247389469 0.903414314207613 -2.0189814791308525 L 0.903414314207613 -1.145764439496236 L 0.7477006887108684 -1.145764439496236 Z M 1.3713913118299335 -1.7230224690807443 L 1.3435206074274366 -1.7098117551939591 L 1.3435206074274366 -1.145764439496236 L 1.0007666846855345 -1.145764439496236 L 1.0007666846855345 -2.018981479130854 C 0.9979097262834182 -2.231095091227764 1.0186617053503286 -2.4428681028317407 1.0626396484590814 -2.6503922873694195 C 1.3436042195406466 -2.6570533857216083 1.452578673754406 -2.7418360685140026 1.4943289889493463 -2.813435908124017 C 1.5305326119613443 -2.87612444626589 1.5297208148670545 -2.953554934904254 1.492210815414758 -3.0154706443377144 C 1.4611199002763917 -3.071388597347773 1.404639883105029 -3.108559651774412 1.340984373326811 -3.1149969297590303 C 1.2527110727003699 -3.120310053369546 1.1673488694484933 -3.082455579060773 1.112026536660299 -3.013463953620737 C 1.0621937171886362 -2.9572208721364994 1.019635151566023 -2.8657492202875057 0.9862460476918318 -2.7475216922121155 L 0.7475055937800468 -2.7475216922121155 L 0.7475055937800468 -4.708699548902581 C 1.4728474580013762 -4.688006876546589 2.0892336652446457 -4.172321956712157 2.237631263849316 -3.4620212039252314 C 2.3860288624539914 -2.7517204511383064 2.02766507758334 -2.0323886148363344 1.3712798290123214 -1.7230224690807443 Z M 1.0890610762326434 -2.7488873567278325 C 1.1075255219906945 -2.821223631361051 1.1401814605801 -2.889169204776551 1.1851313943080517 -2.9487760487025376 C 1.2178842692228442 -2.989762441260423 1.2663414351442355 -3.015113466920883 1.3186878098048136 -3.0186479046395966 C 1.3227559965104727 -3.018645012617111 1.3268212935102177 -3.0184310496171243 1.3308673076287012 -3.018006878438339 C 1.3632786144204951 -3.015116209604849 1.3920566472943614 -2.9961019650959066 1.4074281326223623 -2.9674215499478063 C 1.4273643524994286 -2.935571716355177 1.4284316898045724 -2.8954078135626333 1.4102152030626094 -2.862544089281214 C 1.3914303482953279 -2.830660003444758 1.3237881487104706 -2.759617577922795 1.088949593415034 -2.748887356727834 Z" fill="#bf5000" transform="matrix(1,0,0,1,0,0)" fill-rule="nonzero"></path></g><g clip-path="url(#SvgjsClipPath100054cb3aa3-eca7-460d-a21d-5b5c4e3fa0db)"><path d=" M -0.897813569916926 -3.2245566687652416 C -0.9970185021486098 -3.199303456699474 -1.0706588498389793 -3.1159062836912907 -1.0834379382780692 -3.0143383842476292 C -1.0962170267171645 -2.9127704848039695 -1.0455305605582166 -2.8137307381260173 -0.9556731522565098 -2.7646900461240507 C -0.9320224761208875 -2.751791076646892 -0.9023931341299409 -2.760507057013571 -0.8894941646527859 -2.7841577331491933 C -0.8765951951756255 -2.8078084092848155 -0.8853111755423022 -2.837437751275762 -0.9089618516779245 -2.8503367207529213 C -0.9636799629811579 -2.8801203677273612 -0.9945775766910876 -2.940373123567891 -0.986831418856605 -3.0021884482899566 C -0.979085261022125 -3.0640037730120238 -0.9342757691756853 -3.1147695740971066 -0.8739005055395825 -3.130130722249583 C -0.848053028418511 -3.1369602944257795 -0.8325207093834164 -3.163324663106778 -0.8390748596695554 -3.189243348329237 C -0.8456290099556943 -3.215162033551697 -0.8718266113060595 -3.230974008572006 -0.8978135699169232 -3.2246960222872545 Z" fill="#bf5000" transform="matrix(1,0,0,1,0,0)" fill-rule="nonzero"></path></g><g clip-path="url(#SvgjsClipPath100054cb3aa3-eca7-460d-a21d-5b5c4e3fa0db)"><path d=" M -0.2147583464205458 -3.701340808978748 C -0.19742278502770128 -3.7031181767261927 -0.1823522801592703 -3.7140089442460296 -0.17522374524197248 -3.729910664745635 C -0.16809521032467467 -3.745812385245242 -0.16999163941309803 -3.76430920905024 -0.18019866601129886 -3.7784335615287885 C -0.1904056926094997 -3.7925579140073387 -0.2073726265337228 -3.8001639699742373 -0.2247081878735988 -3.7983866017101526 C -0.3798315655301947 -3.7824275061389554 -0.5049156623105882 -3.6643051267679754 -0.5297220823140302 -3.5103486506202928 C -0.5545285023174749 -3.35639217447261 -0.47287682423074806 -3.20495924793003 -0.3306168646217198 -3.1410839090797653 C -0.30605033092147216 -3.1300320476308894 -0.27717591658372 -3.1409878540395835 -0.2661240549518096 -3.16555438765749 C -0.25507219331989917 -3.1901209212753967 -0.2660279995134607 -3.218995335694775 -0.2905945330490258 -3.2300471975097214 C -0.39260747351443315 -3.2758351274630035 -0.4511654496317167 -3.3844158559401385 -0.4333822183906504 -3.494810290700215 C -0.41559898714957866 -3.605204725460292 -0.325905904699723 -3.689903970582198 -0.21467473430733341 -3.701340808978752 Z" fill="#bf5000" transform="matrix(1,0,0,1,0,0)" fill-rule="nonzero"></path></g><g clip-path="url(#SvgjsClipPath100054cb3aa3-eca7-460d-a21d-5b5c4e3fa0db)"><path d=" M -0.08839257265962686 -2.676869456551783 C 0.041661875655518266 -2.738358305117801 0.1292750753499643 -2.8642916676146553 0.1417079628873834 -3.0076111056962116 C 0.14401684763866385 -3.034440346506096 0.12413917158409205 -3.0580614643788526 0.09730993077420536 -3.0603703491301344 C 0.07048068996432111 -3.0626792338814166 0.04685957209156166 -3.0428015578268446 0.044550687340281 -3.015972317016959 C 0.032854757665900625 -2.878282900101697 -0.06979724385165653 -2.7655818997380233 -0.20579918528940877 -2.7411147334416497 C -0.34180112672716123 -2.716647567145276 -0.47729598911126125 -2.7865052164476083 -0.5362469217033399 -2.9114850462119986 C -0.5436650681056692 -2.9272573203033225 -0.558934126149021 -2.937873968551745 -0.5763023893959817 -2.9393358022777294 C -0.5936706526429449 -2.9407976360037162 -0.6104994687114823 -2.9328825678869377 -0.6204495854066945 -2.918572127509022 C -0.630399702101904 -2.904261687131107 -0.6319594599823135 -2.885729970834001 -0.6245413133449572 -2.8699576968532177 C -0.5297584977053301 -2.668559364085399 -0.2896821515402592 -2.5820959466171556 -0.08825321913761774 -2.6768137151429796 Z" fill="#bf5000" transform="matrix(1,0,0,1,0,0)" fill-rule="nonzero"></path></g><g clip-path="url(#SvgjsClipPath100054cb3aa3-eca7-460d-a21d-5b5c4e3fa0db)"><path d=" M 0.010186108812005434 -1.8607594902378817 C -0.03884343840505977 -1.8096259508880794 -0.11822498148440319 -1.8028716790649666 -0.17518868838788682 -1.8449866579034109 C -0.23215239529136755 -1.8871016367418534 -0.24896570511605498 -1.9649756515494712 -0.2144517686721148 -2.026841017772361 C -0.20132960700233427 -2.0503685533879143 -0.20976482923264883 -2.0800790032849226 -0.23329236484820348 -2.093201164954704 C -0.25681990046375835 -2.1063233266244845 -0.2865303503607677 -2.09788810439417 -0.299652512030548 -2.0743605687786153 C -0.3579797383738259 -1.9696405405849928 -0.3294833369520451 -1.837896130980218 -0.23309271507598428 -1.766641673911769 C -0.1367020931999261 -1.6953872168433164 -0.002393513810599268 -1.7067819462618656 0.08061537883711511 -1.7932566441750346 C 0.09267360133980285 -1.8058376214405985 0.09710398682938703 -1.8238959090255342 0.09223765192923694 -1.8406291246017625 C 0.08737131702908418 -1.8573623401779895 0.0739475737957247 -1.8702283101644084 0.05702301651130193 -1.874380548067896 C 0.04009845922687383 -1.8785327859713838 0.0222443308305722 -1.8733404680597907 0.010186108858134313 -1.8607594902860107 Z" fill="#bf5000" transform="matrix(1,0,0,1,0,0)" fill-rule="nonzero"></path></g><g clip-path="url(#SvgjsClipPath100054cb3aa3-eca7-460d-a21d-5b5c4e3fa0db)"><path d=" M 0.4993169710758163 -1.8746948424391299 C 0.5001670966533316 -1.8782467019599922 0.5006066156044382 -1.8818844226404439 0.5006268941827341 -1.8855365464517013 L 0.5006268941827341 -1.9035410214957151 C 0.5006268941827341 -1.9055755829170962 0.5009056012267601 -1.9075265322252717 0.5009056012267601 -1.9095610936466545 C 0.5009056012267601 -1.9104808268919369 0.5006826355915388 -1.9113448187284146 0.5006268941827341 -1.9123481640869051 L 0.5006268941827341 -2.401116707193483 C 0.5006268941827341 -2.4017298626903383 0.500794118409148 -2.40231514748279 0.5008219891135504 -2.4029283029796455 C 0.5008219891135504 -2.4045726745393927 0.5008219891135504 -2.406133433985933 0.5006268941827341 -2.4077220641368755 L 0.5006268941827341 -4.074613153041385 C 0.499772508065939 -4.078806421980714 0.499772508065939 -4.083128925309595 0.5006268941827341 -4.087322194248923 C 0.5006459706831647 -4.471818971370378 0.19833838703464535 -4.788375009121929 -0.18575185199001032 -4.80605155479909 C -0.569842091014666 -4.823728100476251 -0.8999472102360019 -4.536276869078237 -0.9352439259294365 -4.153403634387757 C -0.9411525152628099 -4.152121581984728 -0.9471168460049473 -4.151369072965861 -0.9529696939294672 -4.149864054928125 C -1.1093352929544182 -4.110310475551279 -1.2386687638311724 -4.000757425563922 -1.3034022738816349 -3.8530270668812925 C -1.3681357839321027 -3.705296708198662 -1.3610124970008644 -3.535950092543508 -1.2841015329355285 -3.3941777757588376 C -1.4123081449275838 -3.2605533818734704 -1.4703971941803915 -3.074520484539878 -1.4410054138640191 -2.8916857579435695 C -1.4116136335476468 -2.70885103134726 -1.2981462200961336 -2.5503968656776577 -1.1345194624073298 -2.4636864385770885 C -1.157747430563277 -2.410616853995806 -1.1696235756495408 -2.35327719266803 -1.1693857136148527 -2.2953473839860066 C -1.1690148544536425 -2.0585629936715826 -0.9792358545431601 -1.865612130865168 -0.7424901342818113 -1.8613169043259297 C -0.6951467603234445 -1.5559906184688619 -0.43372494826044994 -1.329823715098176 -0.12476384190488399 -1.3268961474080636 L -0.11793551932627144 -1.3268961474080636 C 0.05104410601564702 -1.3244592370319879 0.21426234224302498 -1.3882759167067946 0.3367750230004618 -1.5046833707915868 C 0.4357941268798817 -1.6030300249509937 0.4938732006426725 -1.7352415790104634 0.4993169710758163 -1.8746948424391299 Z M -0.12376049654639454 -1.4244436128167983 C -0.4141920460869519 -1.4266401053946822 -0.6491618101124246 -1.661411362834572 -0.6516037672252747 -1.9518409522252402 C -0.6519819990079438 -2.0917833395719194 -0.5963637502445068 -2.2260619697514135 -0.4971443234266324 -2.324750977130649 C -0.47865652959053706 -2.3438850191345146 -0.47891471080572545 -2.374305567411181 -0.4977246018510355 -2.393123061484401 C -0.5165344928963456 -2.4119405555576177 -0.5469549343522349 -2.4122110303653947 -0.5660964461184184 -2.3937309705268226 C -0.681784835344419 -2.278548106936531 -0.7474238972919199 -2.1224162604246364 -0.7487889134767821 -1.9591709474830972 C -0.9290786869927191 -1.966706108324948 -1.0714494620927315 -2.1149004722580163 -1.0717546360929053 -2.2953473839860106 C -1.071907517963019 -2.340115276738679 -1.062698991985956 -2.3844206280118256 -1.0447200528224843 -2.425419961432462 C -1.0153550564516325 -2.4155440343404444 -0.9852660589536638 -2.4079682043727 -0.9547255483068224 -2.4027610787532314 C -0.9520633473753572 -2.402319289009482 -0.9493695218618119 -2.402095580316316 -0.9466709147345018 -2.4020921818475713 C -0.9213108062490624 -2.4021627827219123 -0.900231006621239 -2.4216457857391 -0.8981670599082944 -2.4469218655546636 C -0.8961031131953497 -2.472197945370229 -0.9137429281445004 -2.4948426420446497 -0.9387556346841929 -2.499026491759454 C -1.1531492192359554 -2.534924064697377 -1.3188198980778296 -2.706854424753962 -1.346745106425551 -2.922431389150727 C -1.3746703147732693 -3.138008353547491 -1.258275365773819 -3.3464766686088714 -1.060104681652662 -3.435816608136164 C -1.0355458441815386 -3.446891558659812 -1.0246149940724314 -3.475778451356819 -1.0356899445960766 -3.500337288827945 C -1.0467648951197217 -3.5248961262990726 -1.0756517878167302 -3.535826976408177 -1.1002106252878536 -3.524752025884533 C -1.1385484085583997 -3.5074267035036666 -1.1749223339180959 -3.4860489636570215 -1.2087112775267737 -3.4609838542116194 C -1.262485523119406 -3.574546420614907 -1.2632631427109173 -3.7060810944619416 -1.2108353495833026 -3.8202715164986683 C -1.158407556455685 -3.934461938535395 -1.0581465621671267 -4.019607156490045 -0.9369719096024327 -4.052846132903035 C -0.9306783297128018 -3.9090842427932437 -0.8810079379016431 -3.7705959613995734 -0.7944968686968725 -3.6556049830542525 C -0.7840417636583138 -3.6416648396948785 -0.7669438698250413 -3.6343613487550326 -0.7496437991825138 -3.6364456649524572 C -0.7323437285399863 -3.638529981149879 -0.7174697737807437 -3.6496854472209206 -0.7106248104535289 -3.665709906503416 C -0.7037798471263115 -3.6817343657859105 -0.7060037881578003 -3.7001933213286984 -0.7164588963739368 -3.714133462304896 C -0.8789358992132549 -3.9306145568866198 -0.882760922023198 -4.227317769313845 -0.7259186282283824 -4.447915447551361 C -0.5690763344335612 -4.66851312578888 -0.28757836640032597 -4.762355126285941 -0.029741002991312993 -4.6799977659779985 C 0.22809636041769732 -4.597640405670055 0.40307258919803535 -4.357993276695092 0.40299581666078943 -4.087322194248922 C 0.4038502027775872 -4.083128925309594 0.4038502027775872 -4.078806421980712 0.4029958166607921 -4.074613153041383 L 0.4029958166607921 -3.6255046222995557 C 0.33018243963638394 -3.6797198684449928 0.23299846037950478 -3.6881759235042706 0.15191559000031885 -3.6473513118174283 C 0.07083271962113269 -3.6065267001305856 0.019750123253426954 -3.523419546168361 0.01994085535287926 -3.432639347834278 C 0.01994085535287926 -3.4057023590693323 0.04177759929230396 -3.3838656151299102 0.06871458805724817 -3.3838656151299102 C 0.09565157682219239 -3.3838656151299102 0.11748832076161686 -3.4057023590693323 0.11748832076161686 -3.432639347834279 C 0.11748832076161686 -3.511480065808026 0.18140135073745767 -3.5753930957838667 0.26024206871120303 -3.5753930957838667 C 0.3390827866849486 -3.5753930957838667 0.40299581666078943 -3.511480065808026 0.40299581666078943 -3.432639347834279 L 0.40299581666078943 -2.406523623847567 C 0.39666208040827833 -2.3219422068576416 0.327602995068927 -2.255729152194947 0.24283002842460122 -2.2529585130520235 C 0.15805706178027812 -2.2501878739091 0.08482188337377328 -2.3117503179755907 0.07297880583083494 -2.3957376612438 C 0.07139611037948268 -2.4069048123131673 0.07093859449602302 -2.4182026535169476 0.07161314131510976 -2.4294612135708205 C 0.07264371628067301 -2.446886390093248 0.06429978573121464 -2.463537722378008 0.04972442759751017 -2.4731428146145102 C 0.03514906946380836 -2.482747906851012 0.016556627414164415 -2.483847517010195 0.0009506945320838511 -2.476027432581141 C -0.014655238349991384 -2.4682073481520885 -0.024903749573132572 -2.4526556260101278 -0.02593432408896046 -2.4352304494610997 C -0.026963172070316954 -2.417446831408234 -0.026216258697093098 -2.3996049382054103 -0.02370466774142499 -2.381969533268967 C -0.01051175718082109 -2.2879971603575333 0.05226307362596083 -2.2084104798040634 0.14057732788096966 -2.173690856317534 C 0.22889158213598693 -2.138971232831004 0.32905946957761634 -2.1544990604260303 0.4027171096167661 -2.2143272462879504 L 0.4027171096167661 -1.9036246336089193 C 0.4038463150530478 -1.7800725565868416 0.35520977167544876 -1.66126358610558 0.267767158899882 -1.5739699419361952 C 0.16198642233266725 -1.4746003825897671 0.021329803259263924 -1.4208829309006457 -0.12376049654639454 -1.4244436128167983 Z" fill="#bf5000" transform="matrix(1,0,0,1,0,0)" fill-rule="nonzero"></path></g><g clip-path="url(#SvgjsClipPath100054cb3aa3-eca7-460d-a21d-5b5c4e3fa0db)"><path d=" M -0.49644755581657674 -4.038436978726944 C -0.46951056705162986 -4.038436978726944 -0.44767382311220794 -4.060273722666365 -0.44767382311220794 -4.087210711431313 C -0.44858261219380136 -4.169546450568491 -0.4051778729182156 -4.246019685463573 -0.3340206380118358 -4.287452133585037 C -0.2628634031054531 -4.328884581706504 -0.17493088894317244 -4.328884581706504 -0.10377365403678973 -4.287452133585037 C -0.032616419130407026 -4.246019685463571 0.010788320145175945 -4.169546450568488 0.009879531063577085 -4.087210711431313 C 0.009879531063577085 -4.060273722666365 0.03171627500300178 -4.038436978726944 0.058653263767945996 -4.038436978726944 C 0.08559025253289287 -4.038436978726944 0.1074269964723149 -4.060273722666365 0.1074269964723149 -4.087210711431313 C 0.10851108057395908 -4.204513670875184 0.04655223355977056 -4.313372942182049 -0.05485828245186797 -4.372339600344821 C -0.15626879846350406 -4.431306258507593 -0.2815254935851188 -4.431306258507593 -0.38293600959675467 -4.372339600344824 C -0.48434652560839053 -4.313372942182054 -0.5463053726225817 -4.204513670875191 -0.5452212885209429 -4.087210711431313 C -0.5452212885209456 -4.060273722666365 -0.523384544581521 -4.038436978726944 -0.49644755581657674 -4.038436978726944 Z" fill="#bf5000" transform="matrix(1,0,0,1,0,0)" fill-rule="nonzero"></path></g><g clip-path="url(#SvgjsClipPath100054cb3aa3-eca7-460d-a21d-5b5c4e3fa0db)"><path d=" M 1.1923777774526991 -0.6564106115972033 L -0.06208262770366635 -0.6564106115972033 C -0.08901961646861345 -0.6564106115972033 -0.11085636040803526 -0.6345738676577817 -0.11085636040803526 -0.6076368788928352 C -0.11085636040803526 -0.5806998901278879 -0.08901961646861345 -0.5588631461884663 -0.06208262770366635 -0.5588631461884663 L 0.2112453703716155 -0.5588631461884663 C 0.23523952599940445 -0.38174057785250515 0.3864629355121625 -0.24962160512497622 0.5652033162833185 -0.24962160512497622 C 0.743943697054477 -0.24962160512497622 0.8951671065672349 -0.38174057785250515 0.9191612621950265 -0.5588631461884663 L 1.1924613895659064 -0.5588631461884663 C 1.2193983783308533 -0.5588631461884663 1.2412351222702753 -0.5806998901278879 1.2412351222702753 -0.6076368788928352 C 1.2412351222702753 -0.6345738676577817 1.2193983783308533 -0.6564106115972033 1.1924613895659064 -0.6564106115972033 Z M 0.565286928396528 -0.34754746540873693 C 0.44050210859471184 -0.347714279874177 0.33335307149933047 -0.4363272815383539 0.3097683104344431 -0.5588631461884663 L 0.8208055463586157 -0.5588631461884663 C 0.797202734359943 -0.43629209929551305 0.6899982751402849 -0.3476719281438063 0.5651754455789186 -0.34754746540873693 Z" fill="#bf5000" transform="matrix(1,0,0,1,0,0)" fill-rule="nonzero"></path></g><g clip-path="url(#SvgjsClipPath100054cb3aa3-eca7-460d-a21d-5b5c4e3fa0db)"><path d=" M 1.1923777774526991 -0.9010875255467186 L -0.06208262770366635 -0.9010875255467186 C -0.08901961646861345 -0.9010875255467186 -0.11085636040803526 -0.8792507816072965 -0.11085636040803526 -0.8523137928423496 C -0.11085636040803526 -0.8253768040774054 -0.08901961646861345 -0.8035400601379807 -0.06208262770366635 -0.8035400601379807 L 1.1923777774526991 -0.8035400601379807 C 1.2193147662176433 -0.8035400601379807 1.241151510157068 -0.8253768040774054 1.241151510157068 -0.8523137928423496 C 1.241151510157068 -0.8792507816072965 1.2193147662176433 -0.9010875255467186 1.1923777774526991 -0.9010875255467186 Z" fill="#bf5000" transform="matrix(1,0,0,1,0,0)" fill-rule="nonzero"></path></g></g></g><defs><clipPath id="SvgjsClipPath1001"><path d=" M -1.4484829475014531 -4.806860169808174 h 3.816837226513088 v 4.556860169808174 h -3.816837226513088 Z"></path></clipPath><clipPath id="SvgjsClipPath100054cb3aa3-eca7-460d-a21d-5b5c4e3fa0db"><path d=" M -1.4484829475014531 -4.806860169808174 L 2.3683542790116348 -4.806860169808174 L 2.3683542790116348 -0.25 L -1.4484829475014531 -0.25 Z"></path></clipPath></defs></svg>