<svg xmlns="http://www.w3.org/2000/svg" version="1.1" xmlns:xlink="http://www.w3.org/1999/xlink" xmlns:svgjs="http://svgjs.dev/svgjs" viewBox="0 0 6.161313243407966 1.8688339244957382"><g transform="matrix(1,0,0,1,1.7812533290350374,0.3034355169353691)"><g><path d=" M 0.05859375 1.008544921875 Q 0.05859375 0.96826171875 0.0633544921875 0.9342041015625 Q 0.068115234375 0.900146484375 0.07763671875 0.860595703125 L 0.224853515625 0.860595703125 L 0.224853515625 0.92138671875 Q 0.224853515625 0.971923828125 0.2310791015625 1.0107421875 Q 0.2373046875 1.049560546875 0.2515869140625 1.0762939453125 Q 0.265869140625 1.10302734375 0.2896728515625 1.1165771484375 Q 0.3134765625 1.130126953125 0.347900390625 1.130126953125 Q 0.402099609375 1.130126953125 0.4306640625 1.1004638671875 Q 0.459228515625 1.07080078125 0.459228515625 1.013671875 Q 0.459228515625 0.984375 0.4552001953125 0.9598388671875 Q 0.451171875 0.935302734375 0.4412841796875 0.9111328125 Q 0.431396484375 0.886962890625 0.41455078125 0.8602294921875 Q 0.397705078125 0.83349609375 0.371337890625 0.800537109375 L 0.173583984375 0.5654296875 Q 0.120849609375 0.498046875 0.09228515625 0.4295654296875 Q 0.063720703125 0.361083984375 0.063720703125 0.283447265625 Q 0.063720703125 0.22119140625 0.0831298828125 0.169189453125 Q 0.1025390625 0.1171875 0.13916015625 0.0794677734375 Q 0.17578125 0.041748046875 0.2296142578125 0.0208740234375 Q 0.283447265625 0 0.3515625 0 Q 0.434326171875 0 0.4896240234375 0.0234375 Q 0.544921875 0.046875 0.577880859375 0.0849609375 Q 0.61083984375 0.123046875 0.6243896484375 0.1702880859375 Q 0.637939453125 0.217529296875 0.637939453125 0.26513671875 Q 0.637939453125 0.305419921875 0.6317138671875 0.3394775390625 Q 0.62548828125 0.37353515625 0.617431640625 0.41455078125 L 0.470947265625 0.41455078125 L 0.470947265625 0.355224609375 Q 0.470947265625 0.255615234375 0.4423828125 0.2025146484375 Q 0.413818359375 0.1494140625 0.349365234375 0.1494140625 Q 0.2958984375 0.1494140625 0.26953125 0.1790771484375 Q 0.2431640625 0.208740234375 0.2431640625 0.258544921875 Q 0.2431640625 0.284912109375 0.2471923828125 0.30615234375 Q 0.251220703125 0.327392578125 0.2589111328125 0.3453369140625 Q 0.2666015625 0.36328125 0.277587890625 0.380126953125 Q 0.28857421875 0.39697265625 0.302490234375 0.415283203125 L 0.52294921875 0.681884765625 Q 0.5830078125 0.76025390625 0.615234375 0.8323974609375 Q 0.6474609375 0.904541015625 0.6474609375 0.985107421875 Q 0.6474609375 1.0517578125 0.6265869140625 1.105224609375 Q 0.605712890625 1.15869140625 0.56689453125 1.196044921875 Q 0.528076171875 1.2333984375 0.47314453125 1.2535400390625 Q 0.418212890625 1.273681640625 0.349365234375 1.273681640625 Q 0.264404296875 1.273681640625 0.2083740234375 1.2509765625 Q 0.15234375 1.228271484375 0.1190185546875 1.19091796875 Q 0.085693359375 1.153564453125 0.0721435546875 1.10595703125 Q 0.05859375 1.058349609375 0.05859375 1.008544921875 M 0.8100585937500001 0.010986328125 L 1.001220703125 0.010986328125 L 1.001220703125 0.927978515625 Q 1.001220703125 0.986572265625 1.007080078125 1.025390625 Q 1.012939453125 1.064208984375 1.0257568359375 1.0872802734375 Q 1.03857421875 1.1103515625 1.0587158203125 1.1202392578125 Q 1.078857421875 1.130126953125 1.106689453125 1.130126953125 Q 1.134521484375 1.130126953125 1.1553955078125 1.1202392578125 Q 1.17626953125 1.1103515625 1.1898193359375 1.0872802734375 Q 1.203369140625 1.064208984375 1.2103271484375 1.025390625 Q 1.21728515625 0.986572265625 1.21728515625 0.927978515625 L 1.21728515625 0.010986328125 L 1.40625 0.010986328125 L 1.40625 0.87744140625 Q 1.40625 0.968994140625 1.3916015625 1.0341796875 Q 1.376953125 1.099365234375 1.352783203125 1.143310546875 Q 1.32861328125 1.187255859375 1.2974853515625 1.212890625 Q 1.266357421875 1.238525390625 1.2330322265625 1.2520751953125 Q 1.19970703125 1.265625 1.166748046875 1.269287109375 Q 1.1337890625 1.27294921875 1.106689453125 1.27294921875 Q 1.07958984375 1.27294921875 1.0469970703125 1.269287109375 Q 1.014404296875 1.265625 0.9814453125000001 1.2520751953125 Q 0.9484863281250001 1.238525390625 0.9177246093750001 1.212890625 Q 0.8869628906250001 1.187255859375 0.8627929687500001 1.143310546875 Q 0.8386230468750001 1.099365234375 0.8243408203125001 1.0345458984375 Q 0.8100585937500001 0.9697265625 0.8100585937500001 0.87744140625 L 0.8100585937500001 0.010986328125 M 1.623046875 0.010986328125 L 1.87060546875 0.010986328125 L 1.99072265625 0.4951171875 Q 2.009765625 0.57568359375 2.020751953125 0.6485595703125 Q 2.03173828125 0.721435546875 2.0419921875 0.785888671875 L 2.0478515625 0.785888671875 Q 2.05810546875 0.721435546875 2.069091796875 0.6485595703125 Q 2.080078125 0.57568359375 2.09912109375 0.4951171875 L 2.222900390625 0.010986328125 L 2.46533203125 0.010986328125 L 2.46533203125 1.261962890625 L 2.2880859375 1.261962890625 L 2.2880859375 0.84814453125 Q 2.2880859375 0.7529296875 2.2899169921875 0.6650390625 Q 2.291748046875 0.5771484375 2.294677734375 0.5035400390625 Q 2.297607421875 0.429931640625 2.30126953125 0.37353515625 Q 2.304931640625 0.317138671875 2.307861328125 0.2841796875 L 2.2939453125 0.2841796875 L 2.10498046875 1.100830078125 L 1.98486328125 1.100830078125 L 1.79443359375 0.2841796875 L 1.780517578125 0.2841796875 Q 1.783447265625 0.317138671875 1.787109375 0.37353515625 Q 1.790771484375 0.429931640625 1.793701171875 0.5035400390625 Q 1.796630859375 0.5771484375 1.7984619140625 0.6650390625 Q 1.80029296875 0.7529296875 1.80029296875 0.84814453125 L 1.80029296875 1.261962890625 L 1.623046875 1.261962890625 L 1.623046875 0.010986328125 M 2.68212890625 0.010986328125 L 2.873291015625 0.010986328125 L 2.873291015625 0.927978515625 Q 2.873291015625 0.986572265625 2.879150390625 1.025390625 Q 2.885009765625 1.064208984375 2.8978271484375 1.0872802734375 Q 2.91064453125 1.1103515625 2.9307861328125 1.1202392578125 Q 2.950927734375 1.130126953125 2.978759765625 1.130126953125 Q 3.006591796875 1.130126953125 3.0274658203125 1.1202392578125 Q 3.04833984375 1.1103515625 3.0618896484375 1.0872802734375 Q 3.075439453125 1.064208984375 3.0823974609375 1.025390625 Q 3.08935546875 0.986572265625 3.08935546875 0.927978515625 L 3.08935546875 0.010986328125 L 3.2783203125 0.010986328125 L 3.2783203125 0.87744140625 Q 3.2783203125 0.968994140625 3.263671875 1.0341796875 Q 3.2490234375 1.099365234375 3.224853515625 1.143310546875 Q 3.20068359375 1.187255859375 3.1695556640625 1.212890625 Q 3.138427734375 1.238525390625 3.1051025390625 1.2520751953125 Q 3.07177734375 1.265625 3.038818359375 1.269287109375 Q 3.005859375 1.27294921875 2.978759765625 1.27294921875 Q 2.95166015625 1.27294921875 2.9190673828125 1.269287109375 Q 2.886474609375 1.265625 2.853515625 1.2520751953125 Q 2.820556640625 1.238525390625 2.789794921875 1.212890625 Q 2.759033203125 1.187255859375 2.73486328125 1.143310546875 Q 2.710693359375 1.099365234375 2.6964111328125 1.0345458984375 Q 2.68212890625 0.9697265625 2.68212890625 0.87744140625 L 2.68212890625 0.010986328125 M 3.4951171875 0.010986328125 L 3.684814453125 0.010986328125 Q 3.720703125 0.010986328125 3.7635498046875 0.0142822265625 Q 3.806396484375 0.017578125 3.8492431640625 0.0296630859375 Q 3.89208984375 0.041748046875 3.9320068359375 0.066650390625 Q 3.971923828125 0.091552734375 4.002685546875 0.1343994140625 Q 4.033447265625 0.17724609375 4.0521240234375 0.24169921875 Q 4.07080078125 0.30615234375 4.07080078125 0.3984375 L 4.07080078125 0.4423828125 Q 4.07080078125 0.542724609375 4.0535888671875 0.6141357421875 Q 4.036376953125 0.685546875 4.0078125 0.7342529296875 Q 3.979248046875 0.782958984375 3.9415283203125 0.812255859375 Q 3.90380859375 0.841552734375 3.8631591796875 0.8565673828125 Q 3.822509765625 0.87158203125 3.7811279296875 0.8763427734375 Q 3.73974609375 0.881103515625 3.703125 0.881103515625 L 3.684814453125 0.881103515625 L 3.684814453125 1.261962890625 L 3.4951171875 1.261962890625 L 3.4951171875 0.010986328125 M 3.6943359375 0.741943359375 Q 3.74560546875 0.741943359375 3.78076171875 0.7269287109375 Q 3.81591796875 0.7119140625 3.8367919921875 0.6800537109375 Q 3.857666015625 0.648193359375 3.8668212890625 0.5980224609375 Q 3.8759765625 0.5478515625 3.8759765625 0.4775390625 L 3.8759765625 0.36474609375 Q 3.8759765625 0.30908203125 3.867919921875 0.2684326171875 Q 3.85986328125 0.227783203125 3.8389892578125 0.201416015625 Q 3.818115234375 0.175048828125 3.782958984375 0.1622314453125 Q 3.747802734375 0.1494140625 3.6943359375 0.1494140625 L 3.684814453125 0.1494140625 L 3.684814453125 0.741943359375 L 3.6943359375 0.741943359375" fill="#202020" fill-rule="nonzero"></path></g><g></g><g clip-path="url(#SvgjsClipPath1001)"><g clip-path="url(#SvgjsClipPath1000cfc61a4b-058b-417d-8174-05c6b8facad5)"><path d=" M -0.8837017027476871 -0.016630956277655994 L -0.8849483566207488 -0.016630956277655994 L -0.8849483566207488 1.0467162265133003 L -0.6835489948812298 1.0467162265133003 L -0.6835489948812298 0.8777298654733693 C -0.4847211345653566 0.7840102162677819 -0.3775075163078563 0.5649086079449472 -0.4255119904081768 0.35040578476688766 C -0.4735164645084986 0.1359029615888281 -0.6638929456205801 -0.016599727400248447 -0.8837017027476871 -0.016630956277655994 Z" fill="#fb700d" transform="matrix(1,0,0,1,0,0)" fill-rule="nonzero"></path></g><g clip-path="url(#SvgjsClipPath1000cfc61a4b-058b-417d-8174-05c6b8facad5)"><path d=" M -0.4934828501695394 0.4673297914306675 C -0.5013068038332786 0.4673297914306675 -0.507649371454324 0.4609872238096229 -0.507649371454324 0.4531632701458828 C -0.5076937662035497 0.27538660858537023 -0.6338461446933827 0.12263062108781225 -0.8084086659079329 0.08897843611163572 C -0.813380220819132 0.08802982071339675 -0.8174680467002263 0.08450097094551855 -0.8191322990814484 0.07972117038255797 C -0.8207965514626696 0.07494136981959777 -0.8197843908124601 0.06963678388509072 -0.8164770882575636 0.06580559879161745 C -0.813169785702667 0.061974413698143396 -0.8080697991864441 0.060198677610558554 -0.8030982442996091 0.061147293137134975 C -0.615173773458297 0.09735008970516221 -0.47935141860740993 0.2617834236053894 -0.4792920434196959 0.4531632701458824 C -0.47929203789293595 0.45692467670796144 -0.48078791104981433 0.46053167210005613 -0.4834499039642939 0.4631891094074257 C -0.48611189687877276 0.46584654671479564 -0.4897214491360049 0.4673362395564138 -0.49348285017032945 0.46732979143066633 Z" fill="#ffc632" transform="matrix(1,0,0,1,0,0)" fill-rule="nonzero"></path></g><g clip-path="url(#SvgjsClipPath1000cfc61a4b-058b-417d-8174-05c6b8facad5)"><path d=" M -0.9237484346310185 1.278593846902656 C -0.8742026892015533 1.278593846902656 -0.8340379267007436 1.2384290844018457 -0.8340379267007436 1.1888833389723796 L -1.013458942561295 1.1888833389723796 C -1.0134544725027135 1.2384272327248762 -0.9732923283834412 1.2785893768441163 -0.9237484346309823 1.278593846902656 Z" fill="#fb700d" transform="matrix(1,0,0,1,0,0)" fill-rule="nonzero"></path></g><g clip-path="url(#SvgjsClipPath1000cfc61a4b-058b-417d-8174-05c6b8facad5)"><path d=" M -0.8837017027476871 -0.030797477562440667 L -0.8990824972854533 -0.030797477562440667 L -0.8990824972854533 1.032582085848595 L -1.1060351353686078 1.032582085848595 C -1.1138590890323479 1.032582085848595 -1.1202016566533923 1.0389246534696395 -1.1202016566533923 1.0467486071333796 C -1.1202016566533923 1.0545725607971197 -1.1138590890323479 1.0609151284181644 -1.1060351353686078 1.0609151284181644 L -0.6693824735964451 1.0609151284181644 L -0.6693824735964451 0.8866183456851943 C -0.46789320631717324 0.7870244447389532 -0.36154177860231806 0.5617726195105446 -0.4126716257620988 0.34290597366462183 C -0.46380147292187957 0.12403932781869911 -0.6589421208791546 -0.030780368798147814 -0.8837017027476871 -0.03079747756243988 Z M -0.870749454715884 0.5956784742708168 L -0.8084167610628314 0.5956784742708168 C -0.8204550529974061 0.6560116249107665 -0.8261795004851831 0.7174341325521211 -0.8254975381547729 0.7789527839208311 L -0.8254975381547729 1.0325820858485957 L -0.8707251692508245 1.0325820858485957 Z M -0.6895717902160186 0.864915235076904 L -0.6976669452358955 0.8687523385563262 L -0.6976669452358955 1.0325820858485957 L -0.7972211616703424 1.0325820858485957 L -0.7972211616703424 0.7789527839208308 C -0.7980509764039951 0.7173435562905192 -0.7920234829797229 0.6558332574045379 -0.7792499175262141 0.5955570469455161 C -0.6976426597708352 0.5936223048957678 -0.6659906036431168 0.5689968433253021 -0.653864061423341 0.5482003900792379 C -0.6433485776260582 0.5299922591723466 -0.643584367264815 0.5075022711282615 -0.6544792932048512 0.48951861134014985 C -0.6635097710184069 0.4732770233460527 -0.6799146127448521 0.46248054531340665 -0.6984036043427039 0.46061081276416904 C -0.7240429295053372 0.45906759524638563 -0.7488367150581806 0.47006257525478545 -0.764905302830994 0.4901014625015804 C -0.7793794400065338 0.506437485331692 -0.7917407417218861 0.5330057841069282 -0.8014387374356988 0.5673454317012463 L -0.8707818353359649 0.5673454317012463 L -0.8707818353359649 -0.0022863415824338866 C -0.6601034560427509 0.0037239259758656204 -0.48107167314668176 0.15350662637645585 -0.4379690106544243 0.3598162560688582 C -0.39486634816216526 0.5661258857612605 -0.49895451005942615 0.7750586289564995 -0.6896041708360986 0.864915235076904 Z M -0.7715757105673723 0.5669487691052738 C -0.7662126401329505 0.5459384154285349 -0.75672759514151 0.5262033580805177 -0.7436717112138554 0.5088903173027162 C -0.7341585106878531 0.49698565939848705 -0.7200839374624122 0.4896223549168135 -0.7048797283586055 0.4885957636678846 C -0.7036981076303844 0.4885966036671182 -0.7025173262285398 0.48865875005668913 -0.7013421456149203 0.48878195223334187 C -0.6919281548851824 0.4896215582935364 -0.6835694627647136 0.49514431992391505 -0.6791047547753173 0.503474658594419 C -0.6733142017959406 0.5127255672390718 -0.6730041895042218 0.5243913297764473 -0.6782952392733304 0.5339367269342153 C -0.6837513737567271 0.5431975842769544 -0.703398314989968 0.5638321344226209 -0.7716080911874516 0.5669487691052734 Z" fill="#202020" transform="matrix(1,0,0,1,0,0)" fill-rule="nonzero"></path></g><g clip-path="url(#SvgjsClipPath1000cfc61a4b-058b-417d-8174-05c6b8facad5)"><path d=" M -1.3486712167793795 0.4287887583810334 C -1.3774856770654975 0.4361236525218469 -1.3988748038583525 0.46034668736054546 -1.4025865400395838 0.4898474807084906 C -1.4062982762208167 0.5193482740564352 -1.3915761940286753 0.5481147555528825 -1.3654767586006444 0.5623588162090029 C -1.358607327283881 0.5661053723062686 -1.3500013691032122 0.5635737817443826 -1.3462548130059477 0.5567043504276191 C -1.3425082569086817 0.5498349191108556 -1.3450398474705667 0.5412289609301869 -1.3519092787873304 0.5374824048329212 C -1.3678023680683775 0.5288316281667318 -1.37677670072657 0.5113309797489546 -1.3745267989094867 0.493376477092598 C -1.3722768970924042 0.475421974436241 -1.3592618050581193 0.4606768491047415 -1.3417255737723246 0.4562151435883767 C -1.3342180730236513 0.45423146765800454 -1.3297066502554484 0.4465738337355997 -1.3316103288214307 0.43904565031557813 C -1.3335140073874132 0.4315174668955561 -1.3411232030868643 0.4269248169534772 -1.3486712167793786 0.4287482826059339 Z" fill="#202020" transform="matrix(1,0,0,1,0,0)" fill-rule="nonzero"></path></g><g clip-path="url(#SvgjsClipPath1000cfc61a4b-058b-417d-8174-05c6b8facad5)"><path d=" M -1.1502751575522363 0.29030494145599867 C -1.145239975993671 0.28978869804732454 -1.140862688955069 0.28662543205715374 -1.1387921781281176 0.28200671518986387 C -1.1367216673011662 0.2773879983225736 -1.137272492541651 0.272015523557874 -1.1402371633088901 0.26791305017873 C -1.1432018340761294 0.26381057679958564 -1.1481299463457386 0.26160136811749757 -1.1531651278889188 0.2621176116762317 C -1.1982213191929527 0.2667529933573027 -1.2345524839649444 0.30106210009947554 -1.2417576056050725 0.34577936029968215 C -1.2489627272452013 0.39049662049988876 -1.2252466782283011 0.43448090585458615 -1.1839267169698635 0.45303374766556476 C -1.1767912712440383 0.4562438040170231 -1.1684045847506992 0.4530616472273943 -1.1651945283460776 0.44592620152548523 C -1.1619844719414563 0.4387907558235762 -1.1651666286685989 0.43040406930652836 -1.1723020743465917 0.4271940128487434 C -1.2019321315986424 0.4138947296423281 -1.2189405246221499 0.38235703269359794 -1.2137753156065552 0.35029253766653773 C -1.208610106590959 0.31822804263947757 -1.1825584002488274 0.293626815866502 -1.1502508720871751 0.2903049414559975 Z" fill="#202020" transform="matrix(1,0,0,1,0,0)" fill-rule="nonzero"></path></g><g clip-path="url(#SvgjsClipPath1000cfc61a4b-058b-417d-8174-05c6b8facad5)"><path d=" M -1.1135717246921142 0.5878666496766355 C -1.0757969018913898 0.570006973295759 -1.0503493056243056 0.5334291359772635 -1.0467381248480103 0.49180144505575485 C -1.0460675002482613 0.4840087872066706 -1.0518410489455896 0.47714794120287796 -1.0596337067946746 0.47647731660312864 C -1.067426364643759 0.4758066920033792 -1.0742872106475523 0.4815802407007075 -1.0749578352473013 0.48937289854979216 C -1.0783549637320484 0.5293653278199212 -1.1081706387643175 0.5620997738412218 -1.147672934186898 0.5692063579162376 C -1.1871752296094786 0.5763129419912534 -1.226530241939125 0.5560225147290014 -1.243652770706516 0.5197216347193113 C -1.245807400321174 0.5151405160672179 -1.250242357905431 0.5120568690907608 -1.2552870378453316 0.5116322737718113 C -1.2603317177852331 0.5112076784528611 -1.265219713183857 0.5135066409215837 -1.2681097634657004 0.5176631642583803 C -1.270999813747543 0.5218196875951766 -1.271452851519859 0.527202297020578 -1.2692982218369366 0.5317834156405644 C -1.2417681825977966 0.5902803485115622 -1.1720370695715392 0.615393986037389 -1.1135312489170157 0.5878828399866747 Z" fill="#202020" transform="matrix(1,0,0,1,0,0)" fill-rule="nonzero"></path></g><g clip-path="url(#SvgjsClipPath1000cfc61a4b-058b-417d-8174-05c6b8facad5)"><path d=" M -1.0849391613868087 0.8249089789686721 C -1.0991799849965975 0.8397609153163789 -1.1222366644283082 0.8417227199649039 -1.138781995727837 0.8294902597646693 C -1.1553273270273645 0.817257799564435 -1.1602108185768596 0.7946389876110711 -1.1501861108470166 0.7766699502052246 C -1.146374727705109 0.7698362855337813 -1.1488247709690098 0.7612067692448057 -1.1556584356404538 0.7573953861028978 C -1.1624921003118973 0.7535840029609904 -1.1711216166008733 0.7560340462248912 -1.1749329997427809 0.762867710896335 C -1.1918743705925965 0.7932840523590691 -1.183597479428077 0.8315497310211875 -1.1556004465838279 0.8522458665582066 C -1.1276034137395794 0.8729420020952268 -1.0885929619420762 0.8696323584019569 -1.0644827046515792 0.8445154444268143 C -1.060980346798913 0.8408612504102051 -1.0596935240183312 0.8356161502045396 -1.061106970009019 0.8307559223425394 C -1.0625204159997075 0.8258956944805395 -1.066419394685418 0.82215872321433 -1.0713351984943777 0.8209526894872051 C -1.0762510023033394 0.8197466557600801 -1.0814368036747573 0.8212547847904703 -1.0849391613734105 0.8249089789546928 Z" fill="#202020" transform="matrix(1,0,0,1,0,0)" fill-rule="nonzero"></path></g><g clip-path="url(#SvgjsClipPath1000cfc61a4b-058b-417d-8174-05c6b8facad5)"><path d=" M -0.9428691907879689 0.8208614014587337 C -0.9426222684914614 0.8198297499792816 -0.9424946084943547 0.8187731597904584 -0.9424887185020346 0.8177123861560014 L -0.9424887185020346 0.8124829160131607 C -0.9424887185020346 0.81189196969671 -0.9424077669518355 0.8113253088453184 -0.9424077669518355 0.8107343625288672 C -0.9424077669518355 0.8104672224132112 -0.9424725281919949 0.810216272607595 -0.9424887185020346 0.8099248470268792 L -0.9424887185020346 0.667960113443298 C -0.9424887185020346 0.6677820200328605 -0.9424401475719156 0.6676120217774433 -0.9424320524168958 0.6674339283670059 C -0.9424320524168958 0.6669563142208331 -0.9424320524168958 0.6665029855397199 -0.9424887185020346 0.6660415617035869 L -0.9424887185020346 0.1818865302747863 C -0.9427368782888274 0.18066857892294105 -0.9427368782888274 0.1794130909375675 -0.9424887185020346 0.17819513958572228 C -0.9424831776579284 0.0665165479544879 -1.0302895968275845 -0.025428390396165727 -1.141850107879744 -0.030562612172768417 C -1.2534106189319034 -0.03569683394937111 -1.3492909409488925 0.04779449964652503 -1.359543009971062 0.15900152703344456 C -1.3612591828352887 0.15937390416450836 -1.3629915460095432 0.15959247335004495 -1.3646915285637162 0.16002961172111851 C -1.4101085279191223 0.17151810343709722 -1.4476739400050933 0.20333821496856427 -1.466476040995132 0.24624707501771287 C -1.4852781419851724 0.2891559350668618 -1.4832091554562825 0.3383433214357975 -1.4608700653548743 0.37952164493006163 C -1.4981081768737186 0.4183333723739596 -1.5149803682567473 0.47236735447085243 -1.5064434107929134 0.5254724153777939 C -1.4979064533290793 0.5785774762847357 -1.4649493996310683 0.6246011079847582 -1.4174233683631947 0.649786490423674 C -1.4241700224952056 0.665200758675447 -1.4276194952506644 0.6818552874068419 -1.4275504072930607 0.6986812267437316 C -1.4274426898002703 0.7674561783273242 -1.3723206375691486 0.8234995105330585 -1.3035569178536046 0.8247470758682751 C -1.2898058498568212 0.9134302888923002 -1.2138748628367184 0.9791213498971034 -1.1241359019930535 0.9799716733744146 L -1.1221525890131832 0.9799716733744146 C -1.0730717964150231 0.9806794835172437 -1.025664421802232 0.9621436794930326 -0.9900801348638898 0.9283326795026201 C -0.961319649148954 0.8997675094369753 -0.9444503551859873 0.8613661468422652 -0.9428691907879689 0.8208614014587337 Z M -1.1238444764123379 0.951638630804846 C -1.2082014550606166 0.9510006509511189 -1.276449341346538 0.8828104216787969 -1.2771586173337872 0.7984540123637143 C -1.2772684762332946 0.7578071990265687 -1.261113938508953 0.7188054460941109 -1.2322952682136272 0.6901408381977588 C -1.2269254162386871 0.6845832809167792 -1.22700040598168 0.6757475137781773 -1.2324638123498786 0.6702818990808077 C -1.2379272187180772 0.6648162843834388 -1.2467629548301669 0.6647377239184321 -1.2523226817328057 0.670105329523565 C -1.2859248265246843 0.7035606424188225 -1.304989948602357 0.748909747443244 -1.305386422888099 0.7963249865934865 C -1.3577522922264886 0.7941363696775458 -1.3991044402773791 0.7510927374899504 -1.3991930792584313 0.6986812267437305 C -1.399237484395109 0.6856782173288118 -1.396562832035687 0.6728095548943561 -1.3913407788891508 0.6609011382659646 C -1.382811600926972 0.6637696398876073 -1.3740721340078321 0.6659700693101097 -1.365201523329968 0.6674824992971248 C -1.3644282766648301 0.6676108188548294 -1.3636458445162298 0.667675795919073 -1.3628620235292237 0.6676767830176019 C -1.3554960809055367 0.6676562767177224 -1.3493733707181368 0.6619973623465905 -1.3487738893289059 0.6546558261784753 C -1.3481744079396751 0.6473142900103597 -1.3532979611327736 0.6407370493597393 -1.3605629995035786 0.6395218338584701 C -1.4228344540441447 0.629095243501328 -1.4709541501991183 0.5791573984730318 -1.479065136102902 0.5165422266315197 C -1.4871761220066846 0.45392705479000794 -1.4533687541671827 0.3933766179304622 -1.3958093044601227 0.36742748333036634 C -1.3886760941341254 0.3642107206669022 -1.3855011859992477 0.3558204097853488 -1.3887179486627108 0.3486871994593507 C -1.3919347113261744 0.3415539891333522 -1.4003250222077281 0.3383790809984752 -1.4074582325337253 0.3415958436619382 C -1.418593591518973 0.3466280512594575 -1.4291585402987317 0.35283729934784425 -1.4389726710261066 0.3601175583474172 C -1.4545916108226302 0.32713286710267997 -1.4548174734721302 0.2889281070111007 -1.4395896160563677 0.2557610526438034 C -1.4243617586406043 0.22259399827650606 -1.395240561002694 0.1978632369512789 -1.3600449095823064 0.1882088463453103 C -1.3582169147063685 0.22996504918764055 -1.343789955279633 0.2701895117676995 -1.318662477120696 0.3035890908436164 C -1.315625751000898 0.3076380599641577 -1.310659600913879 0.3097593874516331 -1.3056347277824507 0.3091539896660256 C -1.3006098546510225 0.3085485918804189 -1.2962896563598045 0.3053084431615379 -1.2943015100094666 0.3006540763350617 C -1.2923133636591275 0.2959997095085855 -1.2929593160234802 0.2906382337286444 -1.295996043066218 0.28658926530030604 C -1.343188123544509 0.22371148531298995 -1.3442991163688698 0.1375328776679414 -1.2987436591545056 0.07345941986908959 C -1.25318820194014 0.009385962070237383 -1.1714260169554902 -0.017870813733787218 -1.0965361470559212 0.006050203442260288 C -1.021646277156353 0.029971220618307787 -0.9708237476531727 0.09957766583420263 -0.9708460465366634 0.17819513958572267 C -0.9705978867498699 0.1794130909375679 -0.9705978867498699 0.18066857892294147 -0.9708460465366626 0.18188653027478668 L -0.9708460465366626 0.3123318582650837 C -0.9919949764675664 0.2965848281344499 -1.0202224430637272 0.29412873389395644 -1.0437732796589196 0.3059864019119082 C -1.0673241162541118 0.3178440699298599 -1.0821612560135698 0.3419828676031878 -1.0821058571298519 0.3683503310026328 C -1.0821058571298519 0.37617428466637254 -1.0757632895088065 0.3825168522874171 -1.067939335845067 0.3825168522874171 C -1.0601153821813278 0.3825168522874171 -1.0537728145602825 0.37617428466637254 -1.0537728145602825 0.3683503310026324 C -1.0537728145602825 0.34545073633653167 -1.0352090252145734 0.32688694699082255 -1.012309430548473 0.32688694699082255 C -0.9894098358823725 0.32688694699082255 -0.9708460465366634 0.34545073633653167 -0.9708460465366634 0.3683503310026324 L -0.9708460465366634 0.6663896533694419 C -0.9726857049851416 0.6909566565009799 -0.992744186223344 0.7101884970060979 -1.0173668257006299 0.7109932399735591 C -1.041989465177915 0.7117979829410205 -1.0632609089687615 0.693916930459401 -1.0667007771270245 0.6695224783621345 C -1.0671604772064671 0.6662789356898218 -1.0672933644829126 0.6629974335571966 -1.0670974397229993 0.6597273407880835 C -1.0667981051964888 0.6546661301648911 -1.0692216324348927 0.6498296856249195 -1.0734551021692273 0.6470398490455564 C -1.0776885719035616 0.6442500124661934 -1.08308881936112 0.6439306263978879 -1.0876216235588827 0.6462020004832895 C -1.0921544277566437 0.6484733745686907 -1.0951311478953296 0.6529904330451153 -1.095430482291213 0.6580516436760341 C -1.0957293152084113 0.6632169650426277 -1.095512371300021 0.6683992126542815 -1.0947828698909776 0.6735214849419536 C -1.0909509374572248 0.7008161279232628 -1.072717742508556 0.7239323903360655 -1.0470665222044473 0.7340168406713087 C -1.0214153019003365 0.7441012910065519 -0.992321147510003 0.7395911727946705 -0.9709269980868617 0.7222138423865135 L -0.9709269980868617 0.812458630548102 C -0.9705990159546566 0.8483448141937476 -0.9847256900633085 0.8828533440072837 -1.0101237386931048 0.9082081241232053 C -1.0408481670484808 0.9370704009982075 -1.0817024317820623 0.9526728447834905 -1.1238444764123379 0.951638630804846 Z" fill="#202020" transform="matrix(1,0,0,1,0,0)" fill-rule="nonzero"></path></g><g clip-path="url(#SvgjsClipPath1000cfc61a4b-058b-417d-8174-05c6b8facad5)"><path d=" M -1.2320928893381322 0.19239404149058667 C -1.224268935674392 0.19239404149058667 -1.2179263680533476 0.18605147386954207 -1.2179263680533476 0.178227520205802 C -1.2181903293938874 0.1543127829833045 -1.2055832532339559 0.13210083303015954 -1.1849153562538801 0.12006661654418416 C -1.1642474592738035 0.10803240005820838 -1.1387071168715703 0.10803240005820838 -1.1180392198914935 0.12006661654418416 C -1.0973713229114168 0.13210083303015993 -1.0847642467514862 0.15431278298330528 -1.0850282080920277 0.178227520205802 C -1.0850282080920277 0.18605147386954207 -1.0786856404709821 0.19239404149058667 -1.070861686807243 0.19239404149058667 C -1.0630377331435028 0.19239404149058667 -1.0566951655224583 0.18605147386954207 -1.0566951655224583 0.178227520205802 C -1.056380289058245 0.14415641718397013 -1.0743764783252723 0.11253781638172503 -1.1038315590402896 0.09541072006086662 C -1.1332866397553065 0.07828362374000784 -1.1696679363900664 0.07828362374000784 -1.1991230171050833 0.09541072006086584 C -1.2285780978201 0.11253781638172344 -1.246574287087128 0.14415641718396816 -1.2462594106229161 0.178227520205802 C -1.246259410622917 0.18605147386954207 -1.2399168430018717 0.19239404149058667 -1.2320928893381322 0.19239404149058667 Z" fill="#202020" transform="matrix(1,0,0,1,0,0)" fill-rule="nonzero"></path></g><g clip-path="url(#SvgjsClipPath1000cfc61a4b-058b-417d-8174-05c6b8facad5)"><path d=" M -0.741566970908688 1.174716817687595 L -1.1059298983533492 1.174716817687595 C -1.1137538520170893 1.174716817687595 -1.1200964196381338 1.1810593853086395 -1.1200964196381338 1.1888833389723796 C -1.1200964196381338 1.1967072926361197 -1.1137538520170893 1.2030498602571642 -1.1059298983533492 1.2030498602571642 L -1.0265407130734163 1.2030498602571642 C -1.019571516795743 1.2544958024727446 -0.9756480864812063 1.2928702744577598 -0.9237322443209797 1.2928702744577598 C -0.8718164021607523 1.2928702744577598 -0.8278929718462154 1.2544958024727446 -0.8209237755685416 1.2030498602571642 L -0.7415426854436284 1.2030498602571642 C -0.7337187317798883 1.2030498602571642 -0.7273761641588438 1.1967072926361197 -0.7273761641588438 1.1888833389723796 C -0.7273761641588438 1.1810593853086395 -0.7337187317798883 1.174716817687595 -0.7415426854436284 1.174716817687595 Z M -0.9237079588559194 1.2644273256178715 C -0.959952197459829 1.2643788737044288 -0.9910740540512958 1.2386408810477427 -0.9979243400781505 1.2030498602571642 L -0.8494915776336875 1.2030498602571642 C -0.8563471066248082 1.2386510998676774 -0.8874850607888757 1.264391174930037 -0.9237403394759988 1.2644273256178715 Z" fill="#202020" transform="matrix(1,0,0,1,0,0)" fill-rule="nonzero"></path></g><g clip-path="url(#SvgjsClipPath1000cfc61a4b-058b-417d-8174-05c6b8facad5)"><path d=" M -0.741566970908688 1.1036494517680957 L -1.1059298983533492 1.1036494517680957 C -1.1137538520170893 1.1036494517680957 -1.1200964196381338 1.1099920193891404 -1.1200964196381338 1.1178159730528805 C -1.1200964196381338 1.1256399267166197 -1.1137538520170893 1.131982494337665 -1.1059298983533492 1.131982494337665 L -0.741566970908688 1.131982494337665 C -0.7337430172449486 1.131982494337665 -0.7274004496239033 1.1256399267166197 -0.7274004496239033 1.1178159730528805 C -0.7274004496239033 1.1099920193891404 -0.7337430172449486 1.1036494517680957 -0.741566970908688 1.1036494517680957 Z" fill="#202020" transform="matrix(1,0,0,1,0,0)" fill-rule="nonzero"></path></g></g></g><defs><clipPath id="SvgjsClipPath1001"><path d=" M -1.5086152896621088 -0.030797477562440667 h 1.1086152896621086 v 1.3235578457498813 h -1.1086152896621086 Z"></path></clipPath><clipPath id="SvgjsClipPath1000cfc61a4b-058b-417d-8174-05c6b8facad5"><path d=" M -1.5086152896621088 -0.030797477562440667 L -0.40000000000000013 -0.030797477562440667 L -0.40000000000000013 1.2927603681874407 L -1.5086152896621088 1.2927603681874407 Z"></path></clipPath></defs></svg>